<svg width="16" height="15" viewBox="0 0 16 15" fill="none" xmlns="http://www.w3.org/2000/svg">
<path d="M7.69056 10.2294C8.71142 10.2294 9.53899 9.40185 9.53899 8.38099C9.53899 7.36014 8.71142 6.53257 7.69056 6.53257C6.66971 6.53257 5.84214 7.36014 5.84214 8.38099C5.84214 9.40185 6.66971 10.2294 7.69056 10.2294Z" fill="#363538"/>
<path fill-rule="evenodd" clip-rule="evenodd" d="M3.25435 14.2959C1.62098 14.2959 0.296875 12.9718 0.296875 11.3385V5.95083C0.296875 4.92474 0.969933 4.02013 1.95276 3.72528C2.47517 3.56856 2.9258 3.23305 3.22574 2.77752L3.52806 2.31837C4.07515 1.48747 5.00333 0.987305 5.99817 0.987305H9.38296C10.3778 0.987305 11.306 1.48747 11.8531 2.31837L12.1554 2.77752C12.4553 3.23305 12.906 3.56856 13.4284 3.72528C14.4112 4.02013 15.0843 4.92474 15.0843 5.95083V11.3385C15.0843 12.9718 13.7601 14.2959 12.1268 14.2959H3.25435ZM7.69056 11.3385C9.32393 11.3385 10.648 10.0144 10.648 8.38099C10.648 6.74763 9.32393 5.42352 7.69056 5.42352C6.0572 5.42352 4.73309 6.74763 4.73309 8.38099C4.73309 10.0144 6.0572 11.3385 7.69056 11.3385ZM10.648 5.42352C11.0564 5.42352 11.3874 5.09249 11.3874 4.68415C11.3874 4.27581 11.0564 3.94478 10.648 3.94478C10.2397 3.94478 9.90867 4.27581 9.90867 4.68415C9.90867 5.09249 10.2397 5.42352 10.648 5.42352Z" fill="#363538"/>
</svg>
