<svg width="97" height="97" viewBox="0 0 97 97" fill="none" xmlns="http://www.w3.org/2000/svg">
<g clip-path="url(#clip0_596_5745)">
<rect width="96.7901" height="96.7901" rx="48.3951" fill="white"/>
<path d="M48.999 61.3581C58.8827 61.3581 66.8951 53.3457 66.8951 43.462C66.8951 33.5783 58.8827 25.5659 48.999 25.5659C39.1152 25.5659 31.1029 33.5783 31.1029 43.462C31.1029 53.3457 39.1152 61.3581 48.999 61.3581Z" fill="#979AAD"/>
<path d="M48.999 97.1503C64.813 97.1503 77.6327 89.9392 77.6327 81.0438C77.6327 72.1484 64.813 64.9373 48.999 64.9373C33.185 64.9373 20.3652 72.1484 20.3652 81.0438C20.3652 89.9392 33.185 97.1503 48.999 97.1503Z" fill="#979AAD"/>
</g>
<rect x="0.604938" y="0.604938" width="95.5802" height="95.5802" rx="47.7901" stroke="#DBDCE4" stroke-width="1.20988"/>
<defs>
<clipPath id="clip0_596_5745">
<rect width="96.7901" height="96.7901" rx="48.3951" fill="white"/>
</clipPath>
</defs>
</svg>
