<?xml version="1.0" encoding="UTF-8" standalone="no"?>
<!-- Created with Inkscape (http://www.inkscape.org/) -->
<svg
   xmlns:svg="http://www.w3.org/2000/svg"
   xmlns="http://www.w3.org/2000/svg"
   version="1.0"
   width="540.54144"
   height="723.2644"
   id="svg7993">
  <defs
     id="defs7995" />
  <g
     transform="translate(138.5892,-46.574219)"
     id="layer1">
    <path
       d="M -132.61514,768.41238 C -131.7599,767.04472 -132.05979,763.32718 -133.2815,760.15116 C -135.19214,755.18415 -138.79252,550.37127 -138.58022,458.72653 C -138.482,416.33694 -137.31701,412.15768 -123.69991,405.34553 C -117.62877,402.30834 -108.31856,399.82336 -103.01061,399.82336 C -96.84305,399.82336 -85.918137,396.28005 -72.741857,390.00616 C -49.887423,379.12405 -45.3923,378.34892 -38.886572,384.16815 C -34.716055,387.89854 -33.617141,387.26315 -21.309031,374.00481 C 2.564087,348.2886 3.2560826,345.21984 -8.2655994,316.16161 C -14.667694,300.01517 -14.678091,279.86543 -8.2937365,261.63111 C -4.6923112,251.34509 -4.5869474,248.36067 -7.4705065,238.31527 C -9.670016,230.65288 -10.342498,219.32683 -9.4787434,204.49187 C -8.2866019,184.01748 -7.5595017,181.49065 -0.61242841,173.67989 C 3.5497665,169.00021 8.3854974,161.36582 10.133574,156.71459 C 18.324103,134.92167 30.289883,114.23716 35.371513,113.08725 C 37.341142,112.64155 39.521909,111.40573 40.217708,110.34099 C 40.913485,109.27623 47.335245,104.86081 54.488268,100.52891 C 61.641292,96.19703 69.806193,89.442992 72.632474,85.519945 C 78.827455,76.920946 100.03158,62.835332 112.89604,58.773394 C 118.03008,57.152332 121.76846,55.086668 121.20354,54.183073 C 120.6386,53.279453 127.61214,52.540147 136.70032,52.540147 C 145.78848,52.540147 156.81997,51.159602 161.21472,49.472269 C 165.60949,47.784936 177.90105,46.483085 188.5293,46.579237 L 207.85342,46.754082 L 191.71299,51.632982 C 182.83575,54.316392 172.77902,57.05141 169.3647,57.710857 C 164.19288,58.709739 164.60729,58.070655 171.84784,53.881495 L 180.53885,48.853121 L 173.08941,50.422374 C 168.99222,51.285483 164.52256,52.635321 163.15684,53.422052 C 161.7911,54.20877 158.48735,55.18838 155.8152,55.598982 C 153.14301,56.009586 150.08725,57.698196 149.02457,59.351429 C 147.51208,61.704495 147.08419,61.69102 147.05441,59.289465 C 147.03117,57.41281 143.88282,56.332127 138.94618,56.506285 C 133.59421,56.695094 132.54873,57.204065 135.84225,58.017357 C 140.82184,59.246999 144.42412,62.960975 144.49524,66.938609 C 144.51615,68.108443 142.21549,68.4665 139.38269,67.734307 C 133.55547,66.228181 122.80621,74.674914 127.92723,76.735982 C 129.54904,77.388704 128.36177,78.009956 125.28888,78.116527 C 119.88413,78.303958 109.61729,86.219028 109.91579,89.968193 C 109.99639,90.9806 107.48221,92.52095 104.32872,93.391222 C 100.73836,94.382039 103.00414,94.870596 110.39002,94.698168 C 121.78512,94.432156 125.50562,92.315173 119.08102,89.75291 C 117.2803,89.034742 117.86309,88.43364 120.46915,88.321234 C 122.93978,88.214663 124.2706,87.02304 123.42653,85.673176 C 121.15418,82.039135 125.50428,82.697242 131.02214,86.822272 C 138.02391,92.056636 141.80758,91.242693 135.32705,85.89621 C 132.31224,83.40896 130.53331,80.694205 131.37388,79.863406 C 132.21443,79.032607 134.40175,79.582954 136.23456,81.086387 C 138.80975,83.198787 139.56696,82.828683 139.56696,79.457562 C 139.56696,75.373495 139.91063,75.393457 144.95432,79.770623 C 149.51027,83.724501 150.10928,83.814542 148.83582,80.354119 C 147.91118,77.841548 148.85606,75.683401 151.28392,74.762562 C 155.71185,73.083144 165.96016,81.391772 168.24778,88.515665 C 169.04615,91.001889 170.86104,93.03607 172.28085,93.03607 C 173.76547,93.03607 174.10221,91.211161 173.07337,88.741054 C 169.54981,80.281573 168.82054,75.85598 170.95008,75.85598 C 172.14063,75.85598 175.85665,82.758692 179.20795,91.195344 C 182.94978,100.61514 185.65926,104.83172 186.22899,102.12178 C 186.73928,99.694676 186.22645,96.38137 185.0894,94.758891 C 181.97062,90.308743 182.60966,72.740941 185.93052,71.635375 C 187.78463,71.018118 188.43629,72.719865 187.72801,76.329399 L 186.61698,81.991723 L 189.54443,76.469555 C 191.15456,73.432359 193.48452,70.947375 194.72214,70.947375 C 195.95976,70.947375 196.23559,72.125687 195.33506,73.565829 C 193.25406,76.893846 202.18898,75.568065 204.71148,72.174527 C 205.71487,70.824663 206.55293,72.052064 206.57384,74.902067 C 206.60463,79.099667 207.79098,79.861115 212.81971,78.910972 C 217.37075,78.051095 219.02757,78.796962 219.02757,81.705611 C 219.02757,83.887776 220.14499,85.673176 221.51072,85.673176 C 222.87645,85.673176 223.99386,84.603401 223.99386,83.295903 C 223.99386,81.988404 225.66999,81.554345 227.71858,82.331333 C 229.76717,83.108322 231.4433,82.500406 231.4433,80.980406 C 231.4433,77.419736 243.76932,80.325303 248.50012,85.001143 C 250.39688,86.875882 253.36189,87.873813 255.08901,87.218761 C 259.6976,85.470818 269.14731,96.366513 267.25341,101.24458 C 266.38583,103.47921 264.67812,105.30757 263.4585,105.30757 C 262.23891,105.30757 261.2782,107.24032 261.32364,109.60259 C 261.39339,113.2293 262.15398,113.01092 266.21179,108.19892 C 268.85482,105.06466 275.04502,101.40105 279.96778,100.05761 C 289.56908,97.437366 295.11399,99.740768 308.30319,111.82844 C 312.3093,115.49994 315.32438,116.64595 316.89463,115.09396 C 319.64997,112.37059 307.01178,97.944664 301.87055,97.944664 C 291.61191,97.944664 273.65675,92.243316 273.65675,88.985866 C 273.65675,86.459293 272.13435,85.81997 268.69046,86.900327 C 259.87338,89.666251 263.42234,84.011641 273.03596,79.976577 C 280.34775,76.907634 281.01443,76.177181 276.13989,76.575663 C 272.72557,76.854775 270.12005,75.97342 270.34984,74.617108 C 270.57963,73.260781 267.7861,72.103358 264.14199,72.045014 C 237.66091,71.621161 228.82402,70.696353 230.20172,68.493086 C 231.12995,67.00865 227.69552,66.038784 221.51072,66.038784 C 214.45824,66.038784 211.83073,65.166108 213.04355,63.22655 C 214.28902,61.234721 212.70187,60.887697 207.603,62.03703 C 200.65328,63.603579 200.57596,63.52273 205.37028,59.701859 C 210.1304,55.908275 210.00152,55.812925 202.26635,57.404933 C 196.90319,58.508745 194.19614,58.128635 194.19614,56.271754 C 194.19614,54.734973 195.11432,54.03847 196.23653,54.723977 C 197.35877,55.40951 200.99036,54.622392 204.30675,52.974869 C 215.01822,47.653607 254.56017,50.417327 287.8238,58.812152 C 309.10923,64.183993 317.79515,69.33761 322.56572,79.425528 C 324.50988,83.536669 327.6932,89.661405 329.63978,93.03607 C 331.58634,96.410732 333.231,101.38069 333.29457,104.08042 C 333.42474,109.60841 338.7833,117.57905 342.36952,117.57905 C 343.66861,117.57905 347.17701,119.83095 350.16599,122.58325 C 354.346,126.4323 355.60051,126.7477 355.60051,123.94958 C 355.60051,121.94873 353.15374,118.61781 350.16324,116.54751 C 342.88472,111.50867 346.10754,109.02803 358.75953,109.93093 C 379.43167,111.40615 392.26334,123.54654 393.42306,142.727 C 393.88314,150.33587 395.04955,153.38403 397.19316,152.57931 C 399.34964,151.76976 400.4147,154.67821 400.68236,162.10742 C 400.89427,167.98875 401.41931,177.77072 401.84911,183.84512 C 402.27894,189.91949 401.32537,198.75498 399.73007,203.4795 C 398.1348,208.20403 397.14944,214.16664 397.54044,216.72979 C 397.98683,219.6562 394.11178,225.20035 387.12494,231.63158 C 377.39802,240.58497 375.53116,244.01186 372.28254,258.87721 C 367.00849,283.01074 360.52125,308.99717 357.62193,317.60438 C 356.25781,321.65396 355.05873,326.35507 354.95727,328.05126 C 354.85581,329.74745 351.4992,334.7174 347.49815,339.0956 C 340.47327,346.78266 340.2773,347.66007 341.78963,364.65256 C 342.79478,375.94633 342.4212,382.82003 340.74661,383.84295 C 339.3116,384.71954 338.88709,386.63551 339.80324,388.10068 C 340.73736,389.59453 340.3254,390.06602 338.86533,389.17413 C 337.37747,388.26525 334.45619,392.04373 332.04844,397.99137 C 329.73114,403.71561 327.02479,408.95451 326.03431,409.63339 C 320.45508,413.45741 306.09513,438.44172 297.98769,458.43053 C 287.29221,484.80023 279.92331,497.66003 267.70787,511.27336 C 262.9717,516.55153 258.4123,523.56503 257.57588,526.85895 C 252.69978,546.06116 231.34816,555.64379 206.21507,549.90976 C 192.50812,546.78259 188.31123,548.26585 185.98458,557.05962 C 185.06763,560.52527 186.81375,563.52363 191.92331,567.2574 C 195.90396,570.16623 206.89789,582.55477 216.35425,594.78747 C 235.21564,619.18647 238.70962,622.93876 275.69857,658.51939 C 289.59858,671.89015 300.97133,683.96776 300.97133,685.35847 C 300.97133,686.74919 303.0496,690.16709 305.5897,692.95383 C 309.63785,697.39503 315.7185,714.32336 316.44587,723.17716 C 316.58451,724.8645 317.62909,726.24504 318.7672,726.24504 C 319.90531,726.24504 320.83649,728.23301 320.83649,730.66276 C 320.83649,733.09253 321.885,736.12973 323.16649,737.41208 C 324.448,738.69446 326.26809,745.54195 327.21111,752.62874 L 328.92572,765.51381 L 314.32774,765.94846 C 306.29884,766.18753 266.76602,766.55063 226.47701,766.75534 C 186.188,766.96005 88.560553,767.97613 9.5271191,769.0133 C -87.363848,770.28481 -133.66356,770.08906 -132.61514,768.41238 z M -92.249455,762.4835 C -93.811829,761.49177 -100.30476,760.66345 -106.67817,760.64278 C -113.59358,760.62035 -118.77118,759.36818 -119.51863,757.53735 C -120.20747,755.85001 -120.85931,756.90796 -120.96712,759.88833 C -121.15145,764.98324 -120.21393,765.27673 -105.28597,764.79694 C -96.553498,764.51628 -90.687071,763.47525 -92.249455,762.4835 z M -3.834604,761.32744 C -6.9074953,760.74243 -11.935862,760.74243 -15.008753,761.32744 C -18.081644,761.91242 -15.567457,762.39106 -9.4216828,762.39106 C -3.2758919,762.39106 -0.76171272,761.91242 -3.834604,761.32744 z M 23.552935,758.05358 C 22.82448,755.30029 21.673615,753.596 20.995496,754.26627 C 19.652138,755.59403 22.024979,763.05951 23.790378,763.05951 C 24.388243,763.05951 24.28139,760.80683 23.552935,758.05358 z M 73.340145,759.17227 C 72.123237,756.03785 71.41698,755.91903 69.693377,758.5587 C 67.943878,761.23801 67.111874,761.16399 65.110663,758.15092 C 63.475612,755.68913 62.652942,755.48584 62.627524,757.53735 C 62.605668,759.30154 59.423915,760.60521 55.140071,760.60521 C 50.856227,760.60521 47.674467,759.30154 47.652621,757.53735 C 47.625374,755.339 47.097513,755.25853 45.790256,757.25342 C 44.786876,758.78459 41.731088,760.58923 38.999631,761.26375 C 36.268172,761.93824 43.216952,762.61822 54.441356,762.77481 C 72.111343,763.02132 74.646884,762.53799 73.340145,759.17227 z M 96.094358,760.63331 C 96.964311,759.24207 95.967573,758.83063 93.757776,759.66875 C 89.455924,761.30034 88.668844,763.05951 92.240668,763.05951 C 93.525795,763.05951 95.259979,761.96771 96.094358,760.63331 z M 115.01038,759.99163 C 115.16156,758.3043 115.09458,754.53671 114.86154,751.61924 C 114.6285,748.70175 115.57525,735.44853 116.96541,722.16766 C 118.3556,708.88676 120.17026,690.84178 120.99801,682.06766 C 121.82574,673.29355 123.593,659.07158 124.92521,650.46327 C 126.25743,641.85497 126.81892,634.28944 126.17299,633.65098 C 122.6903,630.20878 119.66705,637.37793 119.40803,649.69306 C 119.24643,657.37511 118.38468,666.97373 117.493,671.02333 C 115.63862,679.44517 113.14907,677.18528 108.02999,662.43328 C 105.20527,654.29309 105.10835,654.6144 106.17965,668.56903 C 106.80143,676.66821 107.58409,701.23935 107.91889,723.17154 C 108.37597,753.11219 109.30106,763.04967 111.63159,763.05388 C 113.33875,763.05698 114.85921,761.67896 115.01038,759.99163 z M 138.25425,728.69933 C 140.16985,719.92522 142.97354,700.00331 144.48468,684.42843 C 145.99585,668.85355 148.90182,648.42152 150.94242,639.02391 C 152.98302,629.6263 155.24764,618.62405 155.97496,614.57447 L 157.29731,607.21157 L 151.1664,614.30351 C 147.79439,618.20407 143.3153,626.48733 141.21287,632.71075 C 138.67209,640.23165 137.33886,642.10888 137.23703,638.3089 C 137.07935,632.42492 148.85695,600.81162 152.02267,598.62153 C 152.99827,597.94659 154.56627,594.95548 155.50716,591.97462 C 157.00959,587.21473 155.31194,585.60738 141.56376,578.773 C 132.95401,574.49298 125.35096,570.30526 124.6681,569.46697 C 123.98524,568.62866 120.86424,565.79584 117.7326,563.17181 C 112.09341,558.44668 112.05378,558.44668 113.61225,563.17181 C 114.47772,565.79584 116.0866,570.15167 117.18751,572.85139 C 118.28843,575.55111 122.28741,586.59546 126.07416,597.39437 C 129.8609,608.19329 133.65865,617.58098 134.51357,618.2559 C 136.00475,619.43314 135.51497,626.08654 129.90639,680.84051 C 128.52368,694.33916 127.41686,718.63671 127.44679,734.83508 C 127.49983,763.55427 127.59158,764.04252 131.13629,754.46946 C 133.13559,749.07001 136.33868,737.47345 138.25425,728.69933 z M 165.90421,759.26332 C 167.71743,752.20141 168.24895,728.66338 166.58211,729.24369 C 163.31697,730.38045 144.53325,756.35436 144.53325,759.73261 C 144.53325,763.45755 164.94239,763.00939 165.90421,759.26332 z M 30.308627,758.15092 C 30.308627,756.80104 29.125259,755.69662 27.67893,755.69662 C 26.232592,755.69662 25.73984,756.80104 26.583905,758.15092 C 27.427978,759.50078 28.611346,760.60521 29.213602,760.60521 C 29.815875,760.60521 30.308627,759.50078 30.308627,758.15092 z M 205.93934,759.1224 C 205.1142,758.30685 202.97251,758.21968 201.17998,758.92865 C 199.1991,759.71212 199.78748,760.29369 202.68022,760.41144 C 205.29785,760.51801 206.76447,759.93794 205.93934,759.1224 z M 60.106355,757.06862 C 60.106355,756.47335 58.988936,755.30374 57.623213,754.46946 C 56.257479,753.63519 55.140071,754.12223 55.140071,755.55176 C 55.140071,756.9813 56.257479,758.15092 57.623213,758.15092 C 58.988936,758.15092 60.106355,757.66389 60.106355,757.06862 z M 31.505452,745.74009 C 30.312826,742.0261 29.178079,741.262 27.897168,743.31046 C 26.869492,744.95399 25.315549,746.20434 24.44394,746.08904 C 19.780997,745.47224 17.892903,746.13265 17.892903,748.38047 C 17.892903,749.82274 20.520936,750.22958 24.100765,749.34156 C 28.291373,748.30201 30.308627,748.81849 30.308627,750.931 C 30.308627,752.65218 30.969365,753.40736 31.776929,752.60918 C 32.584502,751.81099 32.462334,748.7199 31.505452,745.74009 z M 69.252048,747.87354 C 68.459381,745.91567 67.870976,746.49721 67.751828,749.35634 C 67.644013,751.94357 68.230904,753.39315 69.056033,752.57762 C 69.881153,751.76208 69.969379,749.64525 69.252048,747.87354 z M 62.5895,740.97082 C 62.5895,739.62096 61.472093,738.51652 60.106355,738.51652 C 58.740632,738.51652 57.623213,739.62096 57.623213,740.97082 C 57.623213,742.32069 58.740632,743.42511 60.106355,743.42511 C 61.472093,743.42511 62.5895,742.32069 62.5895,740.97082 z M -25.107425,735.60204 C -25.9001,733.64417 -26.488505,734.22573 -26.607637,737.08486 C -26.71546,739.67209 -26.128568,741.12167 -25.303448,740.30612 C -24.478319,739.49059 -24.390102,737.37375 -25.107425,735.60204 z M 306.59567,735.44865 C 307.91959,731.6595 303.44993,721.33644 300.48538,721.33644 C 299.29081,721.33644 299.55624,723.6316 301.07517,726.43681 C 302.59411,729.24202 303.22722,733.10754 302.48205,735.02686 C 301.73688,736.94617 302.11643,738.51652 303.32548,738.51652 C 304.53454,738.51652 306.00613,737.13598 306.59567,735.44865 z M 179.43422,706.70406 C 187.02104,699.22844 199.03325,687.82169 206.12801,681.35574 C 213.22278,674.88979 219.02757,667.93076 219.02757,665.89124 C 219.02757,657.97568 180.44329,574.0431 176.82947,574.09744 C 174.02379,574.13963 164.34589,594.00263 161.70805,605.13273 C 157.41891,623.23023 152.10605,653.55614 153.05955,654.49855 C 153.52519,654.95878 155.37985,649.47742 157.18097,642.3178 C 161.13031,626.61891 161.2136,626.25829 161.60487,623.16451 C 161.77559,621.81464 162.95468,620.7102 164.22505,620.7102 C 165.64939,620.7102 165.64939,623.76188 164.22505,628.67048 C 161.69394,637.39347 161.26212,649.22481 163.70941,642.79889 C 164.48055,640.7741 166.09971,636.47929 167.30755,633.25488 C 171.21598,622.82122 171.7761,629.1668 168.03206,641.46275 C 162.64692,659.14835 163.49126,665.8742 169.46335,652.86421 C 175.33991,640.0624 178.56032,640.52304 173.12201,653.38756 C 168.4792,664.37029 168.47098,665.07249 173.00541,663.35268 C 176.81666,661.90716 176.28636,663.91862 160.46268,710.92739 C 153.0104,733.06654 152.92146,736.66051 160.0529,727.48475 C 163.1258,723.531 171.84739,714.17968 179.43422,706.70406 z M -118.37189,720.68195 C -120.82429,718.2761 -121.1095,718.558 -119.76195,722.05587 C -118.82946,724.47634 -117.44096,725.83849 -116.67645,725.08282 C -115.91191,724.32717 -116.67486,722.3468 -118.37189,720.68195 z M 59.000092,713.73134 C 56.984001,709.14003 55.290719,706.71208 55.237263,708.3359 C 55.117749,711.96654 60.578397,724.14227 61.789414,722.94533 C 62.271384,722.46895 61.016202,718.32266 59.000092,713.73134 z M 53.898494,713.97354 C 52.966227,711.07035 51.644769,709.24725 50.961907,709.92218 C 50.279035,710.59711 50.483085,713.52465 51.415352,716.42784 C 52.34762,719.33103 53.669078,721.15414 54.35194,720.4792 C 55.034812,719.80428 54.830762,716.87673 53.898494,713.97354 z M 71.735196,715.96766 C 70.942521,714.00979 70.354116,714.59134 70.234976,717.45047 C 70.127161,720.0377 70.714052,721.48727 71.539173,720.67174 C 72.364301,719.8562 72.452519,717.73937 71.735196,715.96766 z M -121.16317,705.38349 C -125.03089,693.80033 -126.77057,695.51983 -123.39799,707.59237 C -121.96971,712.70504 -120.21252,716.30636 -119.4931,715.59526 C -118.77368,714.88421 -119.52521,710.28891 -121.16317,705.38349 z M 76.701484,711.05907 C 75.908817,709.10119 75.320403,709.68275 75.201264,712.54188 C 75.093449,715.1291 75.68034,716.57868 76.50546,715.76314 C 77.330589,714.9476 77.418815,712.83077 76.701484,711.05907 z M 300.52787,710.90568 C 300.34538,703.43022 295.91001,691.88486 293.22064,691.88486 C 290.41491,691.88486 290.36334,691.50555 294.99689,704.94629 C 299.39041,717.6908 300.7287,719.13274 300.52787,710.90568 z M 35.274914,706.61065 C 35.274914,705.26079 33.598787,704.15635 31.550201,704.15635 C 29.501607,704.15635 27.825487,705.26079 27.825487,706.61065 C 27.825487,707.96051 29.501607,709.06495 31.550201,709.06495 C 33.598787,709.06495 35.274914,707.96051 35.274914,706.61065 z M 70.038936,704.15635 C 70.038936,701.45661 69.026131,699.24776 67.788254,699.24776 C 66.550394,699.24776 66.122021,701.45661 66.836299,704.15635 C 67.550602,706.85607 68.563398,709.06495 69.086972,709.06495 C 69.610546,709.06495 70.038936,706.85607 70.038936,704.15635 z M 74.166612,698.63417 C 73.477769,696.94685 72.914164,698.32739 72.914164,701.70206 C 72.914164,705.07671 73.477769,706.45726 74.166612,704.76992 C 74.855454,703.0826 74.855454,700.32151 74.166612,698.63417 z M 82.28014,704.76992 C 82.184136,703.75752 81.14526,700.72033 79.971503,698.0206 C 78.080448,693.67097 77.817553,693.8806 77.662907,699.86133 C 77.566903,703.57345 78.605779,706.61065 79.971503,706.61065 C 81.337235,706.61065 82.376119,705.78233 82.28014,704.76992 z M 86.634059,701.24188 C 85.841384,699.28401 85.252987,699.86555 85.133847,702.72468 C 85.026033,705.3119 85.612915,706.76149 86.438036,705.94595 C 87.263164,705.13041 87.351382,703.01357 86.634059,701.24188 z M 93.6288,701.70206 C 94.472865,700.35219 93.980113,699.24776 92.533775,699.24776 C 91.087445,699.24776 89.904078,700.35219 89.904078,701.70206 C 89.904078,703.05192 90.39683,704.15635 90.999103,704.15635 C 91.601359,704.15635 92.784726,703.05192 93.6288,701.70206 z M 54.301464,693.72558 C 53.612609,692.03826 53.049013,693.4188 53.049013,696.79345 C 53.049013,700.16812 53.612609,701.54866 54.301464,699.86133 C 54.990308,698.17399 54.990308,695.41292 54.301464,693.72558 z M 60.409477,695.1368 C 57.482241,690.16142 56.775362,691.75392 59.17155,697.92572 C 60.023148,700.11912 61.242964,701.39673 61.882307,700.76482 C 62.521633,700.13291 61.858862,697.60031 60.409477,695.1368 z M -10.411486,687.96688 C -11.213513,685.90106 -12.995046,684.89826 -14.370439,685.73838 C -15.745807,686.57853 -16.87111,685.36005 -16.87111,683.0306 C -16.87111,680.70116 -17.531848,679.44832 -18.339421,680.2465 C -20.63966,682.52004 -16.789124,692.12447 -14.209186,690.5485 C -12.941791,689.77431 -11.816597,691.1388 -11.708774,693.58073 C -11.589065,696.29228 -11.014562,696.79482 -10.232977,694.87176 C -9.5290959,693.13991 -9.6094341,690.0327 -10.411486,687.96688 z M 56.784606,678.9998 C 56.095752,677.31246 55.532155,678.69301 55.532155,682.06766 C 55.532155,685.44233 56.095752,686.82287 56.784606,685.13554 C 57.47345,683.44821 57.47345,680.68712 56.784606,678.9998 z M 67.767879,683.42437 C 69.016972,684.18736 70.038936,683.71068 70.038936,682.36506 C 70.038936,681.01942 67.926874,680.07568 65.345472,680.26787 C 62.266575,680.49711 61.142024,681.87944 62.076465,684.28628 C 63.046395,686.78456 63.819322,687.01107 64.498864,684.99616 C 65.047739,683.36866 66.51881,682.66136 67.767879,683.42437 z M 81.499618,674.62609 C 81.499618,665.98433 80.825914,663.46572 79.256037,666.23837 C 77.391949,669.53062 78.731259,686.97627 80.84808,686.97627 C 81.20641,686.97627 81.499618,681.41867 81.499618,674.62609 z M 89.904078,683.43966 C 89.904078,682.8444 88.786671,681.67478 87.420938,680.84051 C 86.055206,680.00625 84.937799,680.49329 84.937799,681.92281 C 84.937799,683.35234 86.055206,684.52196 87.420938,684.52196 C 88.786671,684.52196 89.904078,684.03493 89.904078,683.43966 z M -12.69171,676.69889 C -13.484377,674.74103 -14.072782,675.32256 -14.19193,678.18169 C -14.299745,680.76893 -13.712845,682.2185 -12.887725,681.40297 C -12.062596,680.58744 -11.974379,678.4706 -12.69171,676.69889 z M 72.73282,671.9932 C 70.545296,666.58804 70.341051,666.52641 70.196342,671.22784 C 70.109755,674.04008 70.783885,677.07727 71.69437,677.97716 C 74.660166,680.90852 75.164595,678.00187 72.73282,671.9932 z M 37.758054,676.07677 C 37.758054,675.4815 36.640647,674.31188 35.274914,673.47762 C 33.909191,672.64336 32.791766,673.13039 32.791766,674.55992 C 32.791766,675.98945 33.909191,677.15907 35.274914,677.15907 C 36.640647,677.15907 37.758054,676.67204 37.758054,676.07677 z M -17.398138,662.09775 C -18.018026,660.25961 -19.14363,661.37213 -20.021705,664.69083 C -21.101799,668.7732 -20.778632,669.73143 -18.935964,667.91016 C -17.493022,666.48398 -16.800984,663.86838 -17.398138,662.09775 z M -10.208562,664.42739 C -11.001238,662.46952 -11.589643,663.05108 -11.708774,665.91021 C -11.816597,668.49743 -11.229706,669.94702 -10.404585,669.13149 C -9.5794568,668.31593 -9.4912312,666.1991 -10.208562,664.42739 z M -86.091009,661.77879 C -88.543418,659.37294 -88.828637,659.65483 -87.481081,663.15271 C -86.548581,665.57318 -85.160081,666.93531 -84.395568,666.17966 C -83.631038,665.42402 -84.393979,663.44364 -86.091009,661.77879 z M 32.791766,651.38893 C 32.791766,648.01428 31.674351,645.25319 30.308627,645.25319 C 28.942895,645.25319 27.825487,648.01428 27.825487,651.38893 C 27.825487,654.7636 28.942895,657.52468 30.308627,657.52468 C 31.674351,657.52468 32.791766,654.7636 32.791766,651.38893 z M 91.624879,648.36777 C 90.995297,645.97981 90.438776,647.33935 90.388173,651.38893 C 90.33757,655.43853 90.852662,657.39229 91.532873,655.73066 C 92.21305,654.06903 92.254461,650.75572 91.624879,648.36777 z M -30.634432,652.78567 C -29.848699,651.52908 -30.341476,649.80723 -31.729474,648.95937 C -33.11748,648.11151 -34.253121,649.13962 -34.253121,651.24408 C -34.253121,655.55513 -32.76308,656.18989 -30.634432,652.78567 z M -100.08148,650.12176 C -100.93929,648.74988 -102.68138,648.26282 -103.95274,649.03947 C -105.22409,649.81608 -106.2643,648.79482 -106.2643,646.77003 C -106.2643,644.74522 -107.22028,642.5046 -108.38873,641.79086 C -109.55718,641.07711 -109.98562,643.22081 -109.34084,646.55461 C -108.57345,650.52232 -106.50242,652.61609 -103.34515,652.61609 C -100.69227,652.61609 -99.223645,651.49364 -100.08148,650.12176 z M -38.91128,647.05301 C -41.363673,644.64716 -41.648892,644.92905 -40.301344,648.42691 C -39.368844,650.84739 -37.980352,652.20953 -37.215831,651.45388 C -36.451301,650.69822 -37.21425,648.71785 -38.91128,647.05301 z M 50.561692,632.74483 C 50.09221,624.10099 48.695439,615.97954 47.457761,614.69717 C 46.220116,613.41482 45.207491,608.07671 45.207491,602.83474 C 45.207491,596.29435 44.233582,593.62856 42.103561,594.3387 C 38.648637,595.49053 38.442093,601.86127 41.07057,626.20153 C 43.172751,645.66797 44.81275,650.71253 48.617372,649.41509 C 50.425277,648.79857 51.113279,642.89971 50.561692,632.74483 z M -28.567336,640.3446 C -29.281647,637.64486 -30.294444,635.43599 -30.818018,635.43599 C -31.341584,635.43599 -31.769973,637.64486 -31.769973,640.3446 C -31.769973,643.04433 -30.757177,645.25319 -29.519299,645.25319 C -28.281431,645.25319 -27.853041,643.04433 -28.567336,640.3446 z M -111.23058,634.38415 C -111.23058,633.6128 -112.90671,632.98169 -114.95531,632.98169 C -117.10446,632.98169 -118.76293,630.64582 -118.87606,627.45953 C -118.98898,624.27883 -119.64287,623.35593 -120.41822,625.28294 C -121.53505,628.05865 -122.11312,628.07075 -123.81189,625.35401 C -124.93802,623.55305 -126.58511,622.79677 -127.47207,623.67341 C -128.35902,624.55005 -126.74363,627.2485 -123.88235,629.66994 C -121.02109,632.0914 -118.68003,636.11491 -118.68003,638.61104 C -118.68003,642.64523 -118.26616,642.74046 -114.95531,639.46806 C -112.90671,637.44327 -111.23058,635.1555 -111.23058,634.38415 z M -41.337033,620.36577 C -42.657439,615.8307 -43.838574,613.9626 -43.961745,616.21445 C -44.084908,618.46632 -44.849823,622.33183 -45.661502,624.8045 C -46.888898,628.54352 -46.686317,628.68057 -44.457951,625.6188 C -42.176188,622.48366 -41.77295,622.63542 -41.740572,626.64143 C -41.719653,629.22866 -41.080151,630.73032 -40.319419,629.97845 C -39.558711,629.22655 -40.016626,624.90084 -41.337033,620.36577 z M 75.155846,624.21227 C 81.549276,616.59815 96.864902,610.89301 110.91188,610.89301 C 118.47779,610.89301 124.6681,610.53659 124.6681,610.10093 C 124.6681,609.6653 120.12787,598.34486 114.57871,584.94439 C 109.02953,571.54392 103.5727,557.81882 102.45237,554.44415 C 101.33206,551.0695 96.374258,539.61116 91.435037,528.9812 C 86.495824,518.35121 82.454659,508.33469 82.454659,506.7222 C 82.454659,505.10971 77.929424,497.79266 72.398586,490.46209 C 66.867757,483.13149 60.442619,474.55497 58.120514,471.40312 C 55.798397,468.25126 48.870126,459.2085 42.724349,451.30808 C 36.578559,443.40767 28.666499,432.73325 25.141975,427.58713 C 19.970053,420.03573 12.22731,414.97261 -14.991054,401.34349 L -48.715841,384.45635 L -55.762557,389.16044 C -59.638253,391.74767 -65.870304,395.3856 -69.611529,397.2447 C -76.194541,400.51594 -76.257415,400.73316 -71.562094,403.98369 C -68.893629,405.83104 -62.480393,408.8191 -57.310378,410.62385 C -47.644746,413.99793 -5.2346546,437.93524 -0.6406576,442.60969 C 0.77458237,444.04969 5.2442454,449.64471 9.2919094,455.04308 C 13.33959,460.44143 18.675249,467.06804 21.148896,469.76887 C 32.413587,482.06808 41.256963,512.87458 40.524187,537.26407 C 39.008248,587.71919 39.064512,589.62058 42.103561,590.63332 C 44.277059,591.35764 45.207491,588.40876 45.207491,580.79585 C 45.207491,558.0878 48.530936,524.99257 50.811281,524.99257 C 52.118625,524.99257 52.472155,526.83703 51.596918,529.09138 C 50.72168,531.34573 51.202674,533.92144 52.665784,534.81516 C 54.128905,535.70893 57.100632,545.99271 59.269606,557.668 C 61.438611,569.34329 64.039661,578.39099 65.049722,577.77398 C 67.90593,576.02927 70.326606,602.6612 68.52913,616.05379 C 66.851823,628.55115 69.143481,631.37257 75.155846,624.21227 z M 80.167551,565.28398 C 80.286699,562.42485 80.875104,561.84329 81.667771,563.80116 C 82.385102,565.57287 82.296868,567.68968 81.471756,568.50525 C 80.646619,569.32079 80.059737,567.87121 80.167551,565.28398 z M 80.167551,548.10389 C 80.286699,545.24476 80.875104,544.6632 81.667771,546.62108 C 82.385102,548.39279 82.296868,550.50959 81.471756,551.32517 C 80.646619,552.14069 80.059737,550.69111 80.167551,548.10389 z M 72.522075,538.34637 C 72.522075,536.24189 73.639499,535.20265 75.005223,536.03692 C 76.370956,536.87119 77.488363,538.59302 77.488363,539.86321 C 77.488363,541.13341 76.370956,542.17266 75.005223,542.17266 C 73.639499,542.17266 72.522075,540.45082 72.522075,538.34637 z M -115.88874,617.60142 C -118.34114,615.19557 -118.62636,615.47747 -117.27881,618.97534 C -116.34631,621.39581 -114.95782,622.75795 -114.19329,622.00231 C -113.42877,621.24664 -114.19171,619.26627 -115.88874,617.60142 z M -121.16317,618.40076 C -121.16317,617.13057 -122.28058,615.40873 -123.64631,614.57447 C -125.01204,613.74019 -126.12946,614.77944 -126.12946,616.88391 C -126.12946,618.98838 -125.01204,620.7102 -123.64631,620.7102 C -122.28058,620.7102 -121.16317,619.67096 -121.16317,618.40076 z M -47.651739,614.01201 C -50.175905,611.51719 -52.2586,615.27324 -50.187581,618.5853 C -48.623124,621.08726 -48.038224,621.0892 -47.197128,618.59521 C -46.62203,616.89 -46.826618,614.82758 -47.651739,614.01201 z M -56.601411,608.83931 C -56.601411,606.51926 -54.30466,602.6773 -51.497482,600.30166 C -47.771673,597.14857 -46.888079,594.51622 -48.225021,590.5526 C -49.232347,587.56625 -50.09243,583.19012 -50.136334,580.82786 C -50.180263,578.4656 -51.224492,576.53285 -52.456848,576.53285 C -53.689213,576.53285 -54.112659,578.74323 -53.397888,581.44481 C -52.683092,584.14641 -53.026041,585.79009 -54.159992,585.0974 C -58.008145,582.74673 -64.537318,559.14828 -63.006969,553.12171 C -61.220242,546.08555 -66.17006,524.48058 -69.151556,526.30182 C -70.275471,526.98838 -72.458034,525.59413 -74.001648,523.20347 C -76.419472,519.45895 -76.617302,519.7068 -75.429761,524.99257 C -74.671587,528.36724 -74.018862,532.78496 -73.979307,534.80977 C -73.916358,538.03179 -73.619078,538.04065 -71.597274,534.88085 C -68.651,530.27621 -67.60974,531.56474 -65.704718,542.17266 C -64.16639,550.73862 -64.172647,550.74552 -67.934765,544.62696 C -70.837654,539.90583 -71.424503,539.62292 -70.480201,543.39981 C -68.692018,550.55206 -67.076439,561.10485 -68.319677,557.51202 C -68.903566,555.8247 -70.536325,554.44415 -71.948019,554.44415 C -73.359737,554.44415 -73.836497,556.19113 -73.007529,558.32633 C -72.178528,560.46152 -71.500283,562.6704 -71.500283,563.23493 C -71.500283,563.79944 -70.071802,564.26134 -68.325909,564.26134 C -66.580007,564.26134 -63.227768,570.66651 -60.876473,578.495 C -56.27719,593.80819 -55.40109,602.09873 -58.587935,600.15205 C -59.680517,599.48462 -60.57445,602.66142 -60.57445,607.21157 C -60.57445,611.76171 -59.680517,614.93851 -58.587935,614.27108 C -57.495344,613.60368 -56.601411,611.15938 -56.601411,608.83931 z M -54.118272,593.71292 C -54.118272,592.36305 -53.000856,591.25863 -51.635132,591.25863 C -50.2694,591.25863 -49.151993,592.36305 -49.151993,593.71292 C -49.151993,595.06279 -50.2694,596.16722 -51.635132,596.16722 C -53.000856,596.16722 -54.118272,595.06279 -54.118272,593.71292 z M -123.64631,605.98442 C -125.10814,603.28469 -126.8629,601.07583 -127.54577,601.07583 C -128.22863,601.07583 -127.59128,603.28469 -126.12946,605.98442 C -124.66763,608.68414 -122.91287,610.89301 -122.23001,610.89301 C -121.54713,610.89301 -122.18449,608.68414 -123.64631,605.98442 z M -42.944131,603.53012 C -42.100057,602.18026 -42.526883,601.07583 -43.892615,601.07583 C -45.258339,601.07583 -47.066345,602.18026 -47.91041,603.53012 C -48.754484,604.87998 -48.327658,605.98442 -46.961926,605.98442 C -45.596202,605.98442 -43.788196,604.87998 -42.944131,603.53012 z M -83.255686,582.02778 C -81.31325,579.6003 -80.072797,579.86499 -77.504752,583.25494 C -74.541641,587.16638 -74.339311,586.99402 -75.376021,581.44144 C -76.006121,578.06677 -75.857431,576.68624 -75.045593,578.37356 C -74.23378,580.06089 -71.707205,581.45834 -69.431004,581.47901 C -65.851526,581.51153 -65.795637,581.83802 -69.017135,583.89574 C -72.055172,585.83625 -71.754688,586.2818 -67.387253,586.31246 C -63.501327,586.33972 -62.344382,585.17175 -63.169235,582.05419 C -64.704986,576.24973 -74.797694,571.73317 -79.91166,574.56184 C -82.475406,575.97991 -83.915998,575.84991 -83.915998,574.20049 C -83.915998,572.78355 -82.73263,571.62424 -81.286301,571.62424 C -79.839979,571.62424 -79.358485,570.50179 -80.216318,569.12991 C -82.949966,564.75817 -86.399146,569.19698 -86.399146,577.08672 C -86.399146,586.29996 -88.746986,584.65777 -91.399108,573.58952 L -93.34023,565.4885 L -93.632425,572.85139 C -93.842894,578.15476 -94.541723,579.25093 -96.130763,576.77019 C -97.710686,574.30369 -98.22853,575.16631 -97.955104,579.80906 C -97.745104,583.37468 -96.103454,586.85034 -94.30699,587.53273 C -92.000695,588.40876 -91.425831,587.15491 -92.351096,583.26672 C -93.161939,579.85924 -92.540136,580.41073 -90.719943,584.71339 C -89.008886,588.75804 -87.350415,590.29807 -86.755335,588.39483 C -86.192675,586.59527 -84.617838,583.73009 -83.255686,582.02778 z M -55.208579,567.32922 C -56.104344,563.61708 -57.462623,558.50884 -58.226936,555.97752 C -59.128622,552.99133 -58.651235,551.96487 -56.867443,553.05452 C -55.355404,553.97813 -54.118272,553.62941 -54.118272,552.27954 C -54.118272,550.92967 -55.155241,549.19182 -56.422635,548.41763 C -60.522107,545.91345 -61.984872,556.63682 -58.749983,565.47888 C -54.999566,575.72995 -52.919063,576.81701 -55.208579,567.32922 z M -66.533995,569.16995 C -66.533995,567.82008 -67.651411,566.71564 -69.017135,566.71564 C -70.382875,566.71564 -71.500283,567.82008 -71.500283,569.16995 C -71.500283,570.51981 -70.382875,571.62424 -69.017135,571.62424 C -67.651411,571.62424 -66.533995,570.51981 -66.533995,569.16995 z M -76.238253,559.14247 C -77.825595,555.21794 -78.688061,554.59959 -78.792313,557.31129 C -79.001468,562.75166 -75.787063,570.83653 -74.698378,567.60842 C -74.227147,566.21114 -74.920096,562.40145 -76.238253,559.14247 z M -93.848581,561.4296 C -93.848581,557.89586 -97.633459,557.47804 -100.62747,560.68126 C -103.09561,563.32189 -102.73826,563.87864 -98.765102,563.58284 C -96.061014,563.3815 -93.848581,562.41256 -93.848581,561.4296 z M -22.676009,553.83058 C -23.364852,552.14325 -23.928457,553.5238 -23.928457,556.89845 C -23.928457,560.27312 -23.364852,561.65366 -22.676009,559.96633 C -21.98715,558.279 -21.98715,555.5179 -22.676009,553.83058 z M -98.486248,551.98986 C -97.140063,551.98986 -96.795499,550.77945 -97.720564,549.30004 C -98.874983,547.45385 -100.57073,547.76488 -103.12722,550.29168 C -105.44802,552.58551 -106.06118,555.21825 -104.754,557.2765 C -103.10406,559.87454 -102.47222,559.6628 -101.79498,556.28488 C -101.32135,553.92261 -99.832433,551.98986 -98.486248,551.98986 z M 27.825487,553.07215 C 27.825487,550.96768 26.689837,549.93959 25.301831,550.78744 C 23.913834,551.6353 23.421057,553.35714 24.206823,554.61375 C 26.335471,558.01795 27.825487,557.3832 27.825487,553.07215 z M -117.07,544.16428 C -114.04122,543.55298 -114.5053,541.99625 -119.38608,536.39515 L -125.48995,529.3905 L -126.74374,537.62229 C -127.43333,542.14978 -127.01849,546.22225 -125.82191,546.6722 C -124.62534,547.12217 -123.49414,549.33105 -123.30816,551.58079 C -123.09982,554.10074 -122.56447,553.60898 -121.91387,550.30002 C -121.33302,547.34583 -119.15326,544.58475 -117.07,544.16428 z M -108.74745,552.13471 C -108.74745,550.8645 -109.86486,549.14267 -111.23058,548.3084 C -112.59633,547.47414 -113.71373,548.5134 -113.71373,550.61785 C -113.71373,552.72231 -112.59633,554.44415 -111.23058,554.44415 C -109.86486,554.44415 -108.74745,553.4049 -108.74745,552.13471 z M -80.102147,546.46768 C -81.054554,543.43049 -82.363618,538.18443 -83.011142,534.80977 L -84.188504,528.67402 L -80.383159,534.80977 C -76.582657,540.93766 -76.57978,540.93451 -78.133774,532.35547 C -78.989566,527.63095 -81.758075,517.27106 -84.286047,509.33348 C -86.813985,501.39592 -88.882294,493.45395 -88.882294,491.68468 C -88.882294,489.91537 -90.0445,487.75785 -91.464968,486.89016 C -93.122435,485.87765 -93.584097,487.80399 -92.753691,492.26748 C -91.806311,497.35951 -92.225073,496.92154 -94.317002,490.6324 C -98.136976,479.1481 -98.049394,479.1918 -103.89437,485.8528 C -107.9363,490.45905 -108.67303,493.62153 -107.41655,500.97208 C -106.38699,506.99531 -106.77859,510.26678 -108.52917,510.26678 C -110.01497,510.26678 -111.36021,512.19954 -111.51863,514.56181 C -111.78138,518.47932 -111.90416,518.49125 -112.91577,514.69785 C -114.29703,509.5183 -121.17792,511.68152 -121.12514,517.2787 C -121.09262,520.72774 -120.75181,520.78706 -118.76952,517.68875 C -116.87692,514.73068 -116.002,515.18076 -113.99865,520.14305 C -112.45878,523.9573 -111.48678,524.71838 -111.388,522.18729 C -111.30141,519.96943 -109.46592,517.48554 -107.30911,516.66753 C -104.03539,515.42587 -103.67675,516.49734 -105.13792,523.15426 C -106.10059,527.54 -107.98455,531.81859 -109.32451,532.66226 C -110.86314,533.63099 -110.74817,534.81475 -109.01254,535.87499 C -107.50101,536.79832 -106.18576,536.10804 -106.08976,534.34105 C -105.99378,532.57405 -104.85502,533.33719 -103.55916,536.03692 C -101.73211,539.84337 -101.49455,539.07561 -102.50115,532.61769 C -103.21507,528.03738 -102.60018,522.86193 -101.13472,521.11665 C -99.231691,518.8503 -99.274005,516.45906 -101.28272,512.74934 C -102.82956,509.89257 -103.59544,505.68035 -102.98464,503.38883 C -102.21121,500.48717 -101.78667,500.94268 -101.58606,504.88947 C -101.42763,508.00633 -100.22939,509.90372 -98.923311,509.10588 C -97.617224,508.30805 -97.149749,505.7579 -97.884452,503.43885 C -99.070613,499.69487 -98.804506,499.72344 -95.509336,503.69395 C -91.919269,508.01977 -91.756134,508.01977 -90.502624,503.69395 C -89.681217,500.85942 -89.375146,501.46864 -89.666572,505.35819 C -89.980263,509.54515 -91.506078,511.38567 -94.47056,511.15306 C -100.33623,510.6928 -99.946538,512.34874 -92.607007,519.07177 C -86.000408,525.12343 -84.492894,534.39822 -89.337524,539.1866 C -90.953655,540.78395 -91.451602,542.90559 -90.444091,543.9014 C -89.436581,544.89719 -87.57271,544.08729 -86.302155,542.10158 C -85.031607,540.11589 -83.974932,539.22923 -83.954021,540.13121 C -83.933111,541.03321 -83.167402,543.69936 -82.25245,546.056 C -81.118272,548.9773 -81.513339,549.77607 -83.494015,548.56618 C -85.091846,547.59014 -86.399146,547.96117 -86.399146,549.3907 C -86.399146,550.82024 -84.592704,551.98986 -82.384822,551.98986 C -79.364156,551.98986 -78.799138,550.62296 -80.102147,546.46768 z M -87.64072,520.08398 C -88.572986,517.18079 -88.77703,514.25325 -88.094168,513.57832 C -87.411306,512.90339 -86.089846,514.72649 -85.15758,517.62967 C -84.225298,520.53286 -84.021261,523.46041 -84.704132,524.13533 C -85.386994,524.81027 -86.708454,522.98716 -87.64072,520.08398 z M -11.904822,547.08126 C -11.904822,544.38152 -13.08819,542.17266 -14.534519,542.17266 C -15.980857,542.17266 -16.473609,543.2771 -15.629544,544.62696 C -14.785471,545.97683 -15.138549,547.08126 -16.414165,547.08126 C -18.952057,547.08126 -22.647103,532.33767 -20.613062,530.32726 C -19.920707,529.64295 -19.354258,530.85862 -19.354258,533.02874 C -19.354258,538.63764 -15.313578,540.38067 -9.4730056,537.29121 C -5.2250943,535.0442 -4.4553952,535.38105 -4.4553952,539.48717 C -4.4553952,542.15472 -3.3507599,545.01205 -2.0006771,545.83673 C -0.59308201,546.69657 -0.17681233,545.71141 -1.0247836,543.52729 C -1.8381272,541.43237 -1.2666179,539.71836 0.24522865,539.71836 C 1.7570835,539.71836 2.9940405,541.00687 2.9940405,542.58173 C 2.9940405,544.15656 3.6547875,544.79202 4.462343,543.99382 C 7.3383744,541.15121 2.7922374,532.58607 -0.85778396,533.97044 C -5.8370612,535.85898 -5.7271556,521.72821 -0.73068152,517.62967 C 2.3746712,515.08241 3.0456644,515.44055 3.3044277,519.78348 C 3.8049166,528.1827 4.1207154,529.38334 6.3959712,531.53738 C 8.5706641,533.59622 7.4439306,521.83433 4.358309,510.26678 C 3.326802,506.39981 4.1492792,507.18465 6.5825598,512.38929 C 8.7060722,516.93134 10.557848,523.00573 10.697648,525.88792 C 10.853071,529.09214 11.745465,527.79062 12.994349,522.53828 C 15.660581,511.32513 13.784415,502.81948 6.7125312,494.0595 L 0.97382606,486.95095 L -0.7720676,496.13609 C -1.7322949,501.18792 -1.8715087,506.9862 -1.0814428,509.02115 C 1.2979808,515.1498 -1.5579347,513.18692 -5.5182262,505.97177 C -7.5557712,502.25963 -9.2675808,500.62402 -9.3222492,502.33707 C -9.3883348,504.40707 -11.463193,504.94527 -15.508631,503.94171 C -21.264792,502.5138 -21.435079,502.76788 -18.642364,508.61686 C -16.88154,512.30469 -15.016875,513.72685 -14.024111,512.13919 C -13.108331,510.67465 -11.145679,513.79584 -9.6626388,519.07521 C -5.9370051,532.33789 -6.2328219,534.80977 -11.545588,534.80977 C -14.941287,534.80977 -17.201646,531.42177 -20.142183,521.9247 C -23.865591,509.89914 -24.054706,509.6945 -22.977279,518.85683 L -21.822877,528.67402 L -25.381745,521.31113 L -28.940605,513.94824 L -27.484515,522.30632 C -26.500173,527.9567 -26.894596,530.13533 -28.702,529.03127 C -30.859579,527.71329 -32.089235,493.09281 -29.978611,493.08794 C -29.676237,493.08725 -28.325033,496.6761 -26.975963,501.06316 C -24.852835,507.96735 -24.721417,507.42549 -25.998355,497.03226 C -26.973612,489.09453 -26.60844,485.55337 -24.92097,486.58417 C -23.20415,487.6329 -23.075074,485.13548 -24.526765,478.95717 C -27.388569,466.77738 -27.276949,464.09458 -24.093482,468.5437 C -21.751999,471.8161 -21.583778,471.8161 -22.579537,468.5437 C -23.195652,466.51892 -25.099629,465.18542 -26.810569,465.58037 C -28.827454,466.04595 -29.454937,464.53559 -28.595005,461.28534 C -27.865504,458.52813 -28.083408,456.27222 -29.079217,456.27222 C -30.075034,456.27222 -30.808483,463.63494 -30.709107,472.6338 C -30.587149,483.67574 -31.537574,489.32801 -33.632338,490.01842 C -35.339497,490.58109 -36.865889,493.43439 -37.024316,496.35909 C -37.249129,500.5096 -37.561615,500.73404 -38.44797,497.38172 C -39.072533,495.01945 -41.190952,493.08669 -43.155544,493.08669 C -45.904624,493.08669 -46.430582,490.68372 -45.438587,482.65594 C -44.729679,476.91901 -44.809616,473.60571 -45.616193,475.29304 C -47.918381,480.10913 -51.635132,478.88301 -51.635132,473.30746 C -51.635132,470.52806 -50.517708,468.93659 -49.151993,469.77086 C -47.786252,470.60513 -46.668845,469.01365 -46.668845,466.23427 C -46.668845,463.20899 -48.285771,461.18081 -50.697614,461.18081 C -54.025571,461.18081 -54.179983,460.53011 -51.585315,457.44005 C -47.620933,452.71876 -50.322764,449.68609 -55.043487,453.55843 C -57.006415,455.1686 -58.039176,458.86271 -57.371244,461.88464 C -56.495889,465.84492 -56.817626,466.41441 -58.558761,463.98668 C -60.363363,461.47044 -61.394635,461.37277 -62.779154,463.58694 C -63.786865,465.19853 -63.367843,467.74621 -61.847984,469.24842 C -58.53688,472.52105 -58.143821,483.26951 -61.335241,483.26951 C -62.57311,483.26951 -62.976791,485.57173 -62.232302,488.38555 C -61.198813,492.2917 -60.372898,492.72704 -58.740004,490.22628 C -57.124442,487.75213 -56.226762,488.30173 -55.07016,492.47312 C -54.22806,495.51032 -51.958191,497.99529 -50.02601,497.99529 C -48.093845,497.99529 -45.872246,499.64561 -45.089139,501.66265 C -44.306032,503.67969 -42.719493,504.75224 -41.563502,504.0461 C -40.407519,503.33996 -38.177505,507.48794 -36.607937,513.26383 C -32.14903,529.67223 -29.471983,535.21254 -26.793138,533.57617 C -23.62809,531.6428 -23.549851,537.9749 -26.700287,541.08874 C -28.197036,542.5681 -28.211138,544.79923 -26.738311,547.10178 C -24.89438,549.98452 -24.346843,549.45844 -24.162521,544.62696 L -23.928457,538.49121 L -21.434435,545.24054 C -18.550935,553.04385 -11.904822,554.3276 -11.904822,547.08126 z M -34.920568,508.00922 C -36.000663,503.92687 -35.677495,502.96864 -33.834827,504.7899 C -32.391885,506.21609 -31.699856,508.83169 -32.297002,510.60231 C -32.916898,512.44046 -34.042502,511.32793 -34.920568,508.00922 z M -55.05308,481.94747 C -55.904673,479.75406 -56.505365,476.11701 -56.38799,473.86514 C -56.270582,471.6133 -55.190119,473.02865 -53.986945,477.01038 C -51.646181,484.75679 -52.474012,488.59032 -55.05308,481.94747 z M -74.77031,544.16678 C -75.562977,542.20891 -76.151391,542.79046 -76.27053,545.64959 C -76.378345,548.23681 -75.791454,549.68639 -74.966325,548.87086 C -74.141205,548.05529 -74.052979,545.93849 -74.77031,544.16678 z M 9.6565886,539.25817 C 8.8639214,537.30031 8.2755164,537.88187 8.1563767,540.741 C 8.0485538,543.32822 8.6354449,544.7778 9.4605735,543.96226 C 10.285694,543.1467 10.373919,541.02989 9.6565886,539.25817 z M 238.67116,541.52291 C 244.78784,538.42517 245.76046,536.02123 247.84164,518.85683 C 249.82611,502.48992 253.39449,494.13853 258.40322,494.13853 C 261.69624,494.13853 262.68617,495.54067 261.93057,499.1348 C 259.73949,509.5572 272.32655,491.06259 278.09236,475.38768 C 281.21484,466.89897 285.96885,455.86075 288.65685,450.85832 C 291.34485,445.85587 295.25454,433.70708 297.34505,423.86103 C 299.43556,414.01497 302.22411,405.59096 303.54179,405.14101 C 304.85948,404.69103 305.93762,403.3105 305.93762,402.07315 C 305.93762,399.70297 314.55379,390.43987 317.73256,389.39259 C 318.75686,389.05513 319.3496,388.05164 319.0498,387.16262 C 318.74995,386.2736 321.16347,385.8347 324.41313,386.18729 C 332.27172,387.03991 335.03437,380.86439 336.62466,358.89008 C 337.88436,341.48375 337.79743,341.16554 329.36808,332.33163 C 324.6757,327.41408 320.83649,322.36482 320.83649,321.11107 C 320.83649,317.44491 317.20476,318.46491 311.47595,323.74011 C 304.90172,329.79381 294.28495,330.06884 287.79135,324.35369 C 282.99349,320.13097 282.9413,320.2602 284.69167,332.03036 C 285.67085,338.6148 287.13478,345.70926 287.94488,347.79582 C 289.0174,350.55829 288.3097,351.16931 285.34151,350.04352 C 278.95535,347.6214 277.70216,352.66559 281.15535,366.89291 C 283.76011,377.62463 283.75249,380.71887 281.11355,383.86164 C 278.41996,387.06952 278.60873,388.22754 282.25486,390.8627 C 286.29764,393.78448 286.03301,394.51126 278.70808,400.60316 C 271.5281,406.57454 271.29143,407.18625 276.16125,407.18625 C 281.26274,407.18625 281.46496,408.01075 280.22471,423.75277 C 278.35918,447.43133 278.41334,447.19625 273.5822,452.59077 C 271.16441,455.2905 268.79535,459.61672 268.31757,462.20458 C 266.70566,470.93554 261.24102,469.56075 261.24102,460.42425 C 261.24102,453.38734 260.16163,451.62798 255.06922,450.36472 C 250.57098,449.24885 249.05597,447.37884 249.48215,443.46848 C 249.9828,438.87471 248.28174,437.73329 237.65116,435.52984 C 230.82251,434.11445 223.57126,431.89951 221.53724,430.60782 C 217.97405,428.34495 192.89738,426.35506 195.07564,428.50802 C 195.66368,429.08922 204.51963,431.58385 214.75557,434.05159 C 224.99149,436.51934 235.44784,439.84342 237.99189,441.43845 C 242.12881,444.03212 241.96167,444.19395 236.40958,442.97066 C 232.99526,442.21834 221.54176,439.74542 210.95736,437.47522 C 200.37296,435.20501 191.71299,432.56929 191.71299,431.61806 C 191.71299,430.6668 189.19881,429.78769 186.12592,429.66446 C 183.05303,429.54123 172.71694,428.57485 163.15684,427.51695 L 145.77482,425.59349 L 151.54041,419.89488 C 156.75732,414.73857 158.76599,414.34635 172.64714,415.77348 C 181.08476,416.64098 195.54135,417.69819 204.77289,418.1229 C 214.12679,418.55321 223.40712,420.37779 225.73549,422.24429 C 228.60392,424.54372 229.32898,424.63189 228.04869,422.52562 C 227.02305,420.83828 226.93559,418.25561 227.85433,416.78634 C 228.87197,415.15889 230.65177,416.34926 232.40874,419.83249 C 233.99495,422.97711 237.22016,425.9169 239.57589,426.3653 C 243.2471,427.06408 243.85902,425.07644 243.85902,412.45294 C 243.85902,399.49036 244.63798,397.11971 250.35874,392.67205 C 253.93358,389.89273 257.90445,388.25771 259.18289,389.03864 C 261.60523,390.51833 278.5764,380.23185 278.60607,377.26595 C 278.61541,376.33322 277.51632,374.89403 276.16366,374.06776 C 272.95431,372.10732 275.23968,302.16757 278.73043,295.51568 C 280.14718,292.81595 285.15661,288.12212 289.86244,285.08492 C 297.205,280.34597 301.74141,279.56274 321.84661,279.56274 L 345.27468,279.56274 L 344.85051,262.99623 C 344.52002,250.08843 345.17914,246.58739 347.83492,247.14364 C 350.08937,247.61586 350.71043,246.48457 349.66912,243.80251 C 348.53091,240.87087 349.13447,240.14178 351.84764,241.17082 C 354.46611,242.16394 355.6792,240.94829 355.86086,237.14906 C 356.04536,233.29066 357.12255,234.56469 359.55739,241.52112 L 362.99352,251.33831 L 361.54739,240.82264 C 360.10533,230.33661 363.68242,221.69371 368.29759,224.51291 C 371.31382,226.35537 371.06436,216.95902 367.81187,206.21854 C 365.1559,197.44789 364.9849,197.35347 353.24055,198.17238 C 328.55942,199.89328 304.92016,179.92459 302.88643,155.63693 C 302.34814,149.20837 299.60297,147.40658 297.92541,152.38079 C 297.38828,153.97351 295.2192,154.62065 293.10528,153.81889 C 289.9605,152.62615 286.73962,144.73797 285.10477,134.22514 C 284.25868,128.78432 275.72707,122.8131 269.47774,123.28785 C 261.78272,123.87243 257.6773,132.30484 265.08771,132.30484 C 268.54915,132.30484 268.74839,132.96005 266.20731,135.98629 C 261.34113,141.78158 241.54125,140.67089 228.61447,133.87752 C 208.79821,123.46351 205.47132,121.35112 197.19175,113.92598 C 190.54909,107.96882 188.60179,107.24943 186.82226,110.09532 C 185.14289,112.78103 183.61126,111.48498 180.26282,104.54477 C 177.86013,99.564856 174.9581,95.490373 173.81382,95.490373 C 172.66956,95.490373 173.58659,98.285927 175.85169,101.70272 C 178.11676,105.11949 179.25911,108.61768 178.39025,109.47644 C 177.5214,110.33519 169.65537,111.12906 160.91019,111.24056 C 148.09863,111.40391 145.38286,112.10698 146.93,114.85976 C 147.98606,116.73883 148.31421,120.30185 147.65916,122.7776 C 146.6848,126.46032 145.56036,126.79875 141.47635,124.63845 C 138.36734,122.99387 137.06984,122.93404 138.03641,124.4798 C 140.13444,127.83503 131.80242,141.80725 127.15124,142.73353 C 124.22657,143.31595 124.58889,144.46952 128.83802,148.10413 L 134.24951,152.73295 L 128.44635,157.24469 C 118.63148,164.87536 99.107487,161.66696 85.803368,150.23707 C 80.897847,146.02263 80.735773,145.00162 83.821127,137.74897 C 87.508353,129.08152 91.395599,127.9625 98.741269,133.45396 C 105.02849,138.15409 108.74032,138.22113 104.82971,133.56385 C 100.41531,128.30662 103.84964,117.54241 112.43044,109.74094 C 116.4297,106.10489 119.70181,102.42911 119.70181,101.57255 C 119.70181,100.71594 115.58548,100.37757 110.55443,100.82059 C 100.91581,101.66936 89.904078,110.09818 89.904078,116.62721 C 89.904078,118.68071 87.110551,123.98082 83.696225,128.40524 C 80.281907,132.82964 77.488363,137.71329 77.488363,139.25778 C 77.488363,143.46219 69.470688,151.89601 65.141586,152.24541 C 63.055068,152.41382 67.465203,153.42781 74.941848,154.49874 C 83.820358,155.77046 89.93674,158.1559 92.574551,161.37562 C 94.795874,164.08698 100.97019,167.08013 106.29522,168.02703 C 117.8809,170.08728 125.662,173.67776 119.70181,174.21334 C 117.65322,174.39743 112.62485,174.45003 108.52766,174.33026 C 102.1331,174.14332 101.78148,174.42961 106.04451,176.35199 C 108.77598,177.58373 113.64453,178.66914 116.86355,178.76401 C 121.04656,178.88731 122.28629,179.98679 121.20906,182.61796 C 120.38006,184.64275 118.95322,188.13724 118.03826,190.38345 C 116.79099,193.44554 117.25703,193.95412 119.90061,192.41589 C 122.05184,191.16414 121.73231,192.27862 119.08102,195.27438 C 114.33971,200.63177 113.26217,204.66919 117.21866,202.25234 C 118.5844,201.41809 119.70181,202.28857 119.70181,204.18676 C 119.70181,206.08494 117.18762,208.83645 114.11473,210.30122 L 108.52766,212.96449 L 114.73552,213.21754 L 120.94339,213.47062 L 114.73552,216.97814 L 108.52766,220.48565 L 114.73443,220.5726 C 120.60081,220.65483 120.34532,221.19794 110.07511,230.47679 C 104.09875,235.87624 97.95347,240.31088 96.418906,240.33155 C 94.725155,240.35438 94.914294,241.17479 96.900316,242.41949 C 99.287192,243.91541 98.191523,245.28057 92.848345,247.46808 C 86.183045,250.19687 85.536308,251.49807 85.652152,261.94667 C 85.726451,268.64818 84.656753,273.427 83.082392,273.427 C 77.379704,273.427 76.976741,277.11753 82.661573,277.28095 C 88.233822,277.44112 88.307745,277.60415 83.696225,279.56274 C 78.931573,281.58641 78.953596,281.67903 84.239095,281.84452 C 88.129562,281.96636 89.319922,283.1202 88.290506,285.77162 C 87.330781,288.2436 85.130468,288.99219 81.849634,287.963 C 78.753106,286.99161 77.460109,287.34915 78.434438,288.90739 C 79.296838,290.28656 78.598728,292.07378 76.883046,292.87898 C 75.167372,293.68417 76.276708,293.88218 79.348244,293.31901 C 82.419789,292.75583 85.472372,293.15787 86.131764,294.2124 C 86.791172,295.26693 82.941698,296.8234 77.577392,297.67124 C 67.441215,299.27324 55.270902,295.58821 54.972479,290.8267 C 54.363711,281.11327 52.289942,271.02633 50.432425,268.74353 C 49.233268,267.26985 47.465136,261.34836 46.503247,255.58469 C 45.541346,249.82102 43.100375,243.47051 41.078842,241.47248 C 39.057319,239.47444 38.321207,237.80053 39.443043,237.75269 C 43.917643,237.56191 28.699279,230.64483 23.626532,230.56373 C 15.738761,230.43766 14.596613,234.23127 21.576055,237.37439 C 28.673459,240.57059 35.869919,253.0857 33.750095,258.54573 C 32.93078,260.65603 33.490378,262.38266 34.993668,262.38266 C 38.499652,262.38266 37.266887,270.55173 32.99275,275.64194 C 28.125595,281.43837 25.352418,280.42354 25.263381,272.81342 C 25.186849,266.27244 25.070411,266.21563 21.491502,270.97271 C 13.914838,281.04362 10.416677,284.47134 7.715441,284.47134 C 3.0740776,284.47134 7.6703496,271.94713 15.578963,263.04436 C 23.001098,254.6892 24.071817,252.12779 21.291137,249.37942 C 18.432821,246.5543 11.17143,252.26614 7.9996316,259.83455 C 6.2809048,263.93573 3.4883817,267.29125 1.7940115,267.29125 C -2.6112639,267.29125 -7.0604096,291.61968 -4.526332,301.8516 C -3.3835141,306.46603 0.45219251,317.35361 3.9974773,326.0462 C 7.5427871,334.7388 10.443476,342.89252 10.443476,344.16557 C 10.443476,348.00152 21.066834,355.87441 25.185109,355.09054 C 27.299136,354.68813 29.743257,351.05908 30.616488,347.02598 C 32.025572,340.51804 32.237237,340.88287 32.497991,350.26867 C 32.65957,356.08526 33.714079,360.28088 34.841339,359.59228 C 35.968608,358.9037 38.880667,364.9057 41.312611,372.93004 C 43.744522,380.95439 46.700406,386.92961 47.881238,386.20828 C 49.062048,385.487 50.675752,387.97919 51.467199,391.7465 C 52.258656,395.51386 53.945125,401.90951 55.214963,405.9591 C 57.451432,413.09152 57.497165,413.11073 56.676237,406.57268 C 56.210124,402.86055 56.791205,399.82336 57.967554,399.82336 C 59.143893,399.82336 60.106355,402.03222 60.106355,404.73197 C 60.106355,407.43169 61.450931,409.36445 63.094305,409.02698 C 66.02503,408.42516 66.374854,409.5189 67.215599,421.91204 C 67.541142,426.7109 68.135176,427.26114 69.941936,424.43742 C 72.973885,419.69891 75.070481,422.05172 76.287815,431.55876 C 76.831472,435.80468 79.558838,442.14666 82.348618,445.65208 C 85.138414,449.1575 87.420938,454.15071 87.420938,456.74806 C 87.420938,459.3454 88.533603,460.79084 89.893531,459.96012 C 91.253441,459.12942 93.68208,461.30444 95.290491,464.79352 C 97.003564,468.5096 98.899444,470.04253 99.867551,468.49431 C 102.20975,464.74855 123.53469,486.16368 129.9857,498.73982 C 135.28943,509.07937 149.46639,526.84235 149.53756,523.23726 C 149.55846,522.17788 150.39652,522.53756 151.39992,524.03655 C 154.4259,528.55712 168.66162,534.80609 176.07003,534.86582 C 179.8936,534.89665 190.84389,537.00582 200.404,539.55287 C 221.20793,545.09556 230.65624,545.58198 238.67116,541.52291 z M 195.22013,534.46179 C 194.48279,533.2826 195.54272,530.67393 197.57552,528.66472 C 202.63552,523.66349 213.58095,519.78453 215.223,522.41057 C 217.53791,526.11266 213.58321,532.69933 209.88717,531.2975 C 207.94389,530.56045 206.95764,530.9229 207.69553,532.10295 C 208.43339,533.28297 206.22992,534.77888 202.79894,535.42712 C 199.36793,536.07538 195.95745,535.64099 195.22013,534.46179 z M 220.86193,478.25719 C 214.35931,475.64765 205.51403,472.89877 201.20576,472.14858 C 190.77888,470.33296 189.22985,469.17091 189.22985,463.16458 C 189.22985,460.36538 186.81586,456.00581 183.86546,453.47665 C 176.74735,447.37488 179.49836,445.16259 188.48952,449.75809 C 192.43338,451.77383 203.54525,454.50309 213.1826,455.82311 C 222.81995,457.14313 234.15998,459.98902 238.38269,462.14727 C 243.19249,464.60562 246.63147,465.15801 247.58937,463.62611 C 248.43033,462.28121 251.00794,461.18593 253.31736,461.19218 C 256.42872,461.2006 255.45006,463.1177 249.53901,468.59364 C 244.75804,473.02269 242.12839,477.44339 242.97601,479.62664 C 244.963,484.74444 235.5792,484.16336 220.86193,478.25719 z M 110.42451,448.29575 C 110.32966,446.60842 109.4103,441.46674 108.38146,436.86979 C 107.02246,430.79759 107.296,428.9913 109.38161,430.26533 C 112.81921,432.36517 113.22428,428.77501 109.92259,425.47078 C 107.22066,422.76676 111.38325,399.96284 115.27625,396.14192 C 116.95225,394.49695 117.24208,395.44047 116.15519,399.00323 C 115.26326,401.92684 115.70047,405.03173 117.12677,405.90297 C 118.57524,406.78777 119.00804,410.29092 118.10721,413.83848 C 117.06022,417.96153 117.40133,419.63585 119.07947,418.61078 C 120.50126,417.74224 122.29155,418.64658 123.05788,420.62039 C 123.8242,422.59422 123.52692,424.77375 122.39724,425.46383 C 121.26756,426.15389 119.65337,430.12797 118.81014,434.29514 C 117.9574,438.50919 116.16201,441.19065 114.76467,440.33711 C 113.38293,439.49305 112.25238,439.97204 112.25238,441.40158 C 112.25238,442.83111 113.36979,444.00073 114.73552,444.00073 C 116.10125,444.00073 117.21866,445.65739 117.21866,447.68218 C 117.21866,452.10128 110.67163,452.69255 110.42451,448.29575 z M 171.84784,444.00073 C 168.6647,441.96752 168.75496,441.61613 172.46863,441.58401 C 174.85865,441.56334 176.81412,442.65086 176.81412,444.00073 C 176.81412,446.99402 176.53405,446.99402 171.84784,444.00073 z M 231.4433,408.4134 C 231.4433,406.38862 232.56071,404.73197 233.92644,404.73197 C 235.29217,404.73197 236.40958,406.38862 236.40958,408.4134 C 236.40958,410.4382 235.29217,412.09486 233.92644,412.09486 C 232.56071,412.09486 231.4433,410.4382 231.4433,408.4134 z M 93.705876,407.30951 C 92.791878,405.84782 91.003862,405.28729 89.732495,406.06393 C 88.413744,406.86949 87.247097,400.82545 87.016186,391.99174 L 86.611459,376.50752 L 84.937799,390.00616 C 84.017293,397.43042 83.082024,400.55965 82.859411,396.96001 C 82.636798,393.36037 81.057887,389.85815 79.350728,389.1773 C 76.867589,388.18696 76.867589,387.90065 79.350728,387.74564 C 81.057887,387.63907 82.454659,386.57015 82.454659,385.37027 C 82.454659,384.17039 80.499719,383.34207 78.110342,383.52955 C 75.401528,383.74208 73.476297,381.86256 72.996384,378.53696 C 72.573064,375.60356 69.659987,370.6336 66.522875,367.49262 C 61.346805,362.31017 57.249477,352.96016 54.340643,339.69306 C 53.748711,336.99333 53.654823,340.30663 54.131961,347.05595 C 54.881896,357.66352 54.629628,358.49549 52.271659,353.1917 C 48.474089,344.64992 46.481768,291.53469 50.177307,297.35641 C 51.676832,299.71866 54.524293,301.65144 56.505028,301.65144 C 58.526237,301.65144 60.19237,304.07437 60.302403,307.1736 C 60.410222,310.2108 61.062046,311.31523 61.750888,309.6279 C 62.439747,307.94057 63.992578,306.56003 65.201649,306.56003 C 66.410686,306.56003 66.82545,308.03973 66.123284,309.84827 C 65.421126,311.65679 66.573604,314.55312 68.684353,316.28452 C 71.07639,318.24666 72.522075,323.47983 72.522075,330.17636 C 72.522075,336.08548 73.66077,340.9202 75.052523,340.9202 C 76.511742,340.9202 76.923369,338.32269 76.024895,334.78445 C 75.064894,331.00386 75.523277,328.64871 77.219169,328.64871 C 78.732965,328.64871 79.692155,329.97906 79.350728,331.60503 C 79.009293,333.23101 79.927164,334.61155 81.390456,334.67291 C 89.524954,335.01399 92.15721,343.14497 94.611954,375.51395 C 97.068922,407.91216 96.938758,412.47967 93.705876,407.30951 z M 82.454659,377.73468 C 82.454659,376.38481 81.337235,375.28038 79.971503,375.28038 C 78.605779,375.28038 77.488363,376.38481 77.488363,377.73468 C 77.488363,379.08454 78.605779,380.18898 79.971503,380.18898 C 81.337235,380.18898 82.454659,379.08454 82.454659,377.73468 z M 79.971503,361.78174 C 79.971503,357.0572 79.078473,353.1917 77.986978,353.1917 C 76.895492,353.1917 76.459031,357.0572 77.01709,361.78174 C 77.575125,366.50627 78.468171,370.37178 79.001623,370.37178 C 79.53505,370.37178 79.971503,366.50627 79.971503,361.78174 z M 166.55457,385.06642 C 173.88623,378.37232 180.82127,373.46734 181.96575,374.16645 C 185.33169,376.22252 181.75091,382.32174 176.14559,384.08014 C 173.29877,384.9732 168.10569,388.32853 164.6054,391.53647 C 161.10514,394.74439 157.11246,397.33947 155.73278,397.30329 C 154.35309,397.26711 159.22289,391.76051 166.55457,385.06642 z M 215.68964,382.21607 L 209.15315,376.50752 L 213.96896,366.07675 C 216.61766,360.33984 219.89087,355.646 221.24277,355.646 C 225.10363,355.646 227.13432,360.46831 224.64696,363.72996 C 220.89518,368.64962 221.30134,378.33925 225.19742,376.86156 C 227.07293,376.1502 232.46478,374.85296 237.17928,373.97878 C 244.29821,372.65879 246.41495,373.32616 249.66778,377.9163 C 255.18387,385.70012 252.62258,387.8441 242.70202,383.74717 C 234.4888,380.35535 226.84708,381.14941 223.73077,385.71851 C 222.90322,386.93186 219.28471,385.35578 215.68964,382.21607 z M 105.15533,368.53106 C 104.96152,361.44427 105.64101,355.68273 106.66531,355.72765 C 110.53071,355.89712 119.70181,365.18099 119.70181,368.92445 C 119.70181,375.33712 109.83022,373.78171 109.41685,367.3039 C 109.22307,364.2667 108.2642,366.19948 107.28609,371.59893 L 105.50769,381.41611 L 105.15533,368.53106 z M 99.645406,375.89395 C 99.540243,374.88156 98.943248,369.08327 98.318785,363.00889 C 97.694305,356.9345 96.698011,350.58399 96.104813,348.89668 C 95.511591,347.20934 96.108594,345.82879 97.431435,345.82879 C 98.754309,345.82879 99.882698,346.65713 99.938989,347.66952 C 99.995255,348.68192 100.65935,355.86073 101.41472,363.62246 C 102.17009,371.38417 102.12405,377.73468 101.31239,377.73468 C 100.50075,377.73468 99.750594,376.90635 99.645406,375.89395 z M 241.45267,359.41892 C 237.44091,354.64118 247.25114,343.29121 251.64169,347.63074 C 253.70488,349.66997 253.12882,352.02309 249.42802,356.67327 C 245.17615,362.01585 243.97927,362.42791 241.45267,359.41892 z M 307.17919,346.36477 C 300.5449,345.0123 297.64854,342.01742 297.20373,336.04992 C 296.8765,331.65975 298.33408,331.10301 310.15525,331.10301 C 319.6016,331.10301 323.88405,332.15534 324.88032,334.72138 C 327.40955,341.23585 316.67064,348.29964 307.17919,346.36477 z M 41.868604,316.99079 C 41.045148,309.22908 41.273475,299.01306 42.376012,294.28854 C 43.91693,287.68556 44.448615,290.95001 44.674532,308.40076 C 44.836184,320.887 44.607858,331.10301 44.167124,331.10301 C 43.726423,331.10301 42.692092,324.75251 41.868604,316.99079 z M 236.23065,322.0478 C 233.91551,316.02927 234.71658,314.45936 245.31002,304.25413 C 251.70022,298.09812 255.97127,294.71804 254.80126,296.74282 C 253.63125,298.76763 252.99568,302.35704 253.38888,304.7193 C 253.78206,307.08157 252.8768,309.01433 251.37716,309.01433 C 249.48739,309.01433 249.41003,310.41689 251.12507,313.58425 C 253.05681,317.1518 252.36001,319.30514 247.94846,323.40144 C 240.6539,330.17474 239.29651,330.01795 236.23065,322.0478 z M 10.699212,319.18649 C 7.8271115,315.19984 5.4771801,309.40679 5.4771801,306.31307 C 5.4771801,300.8904 16.891976,282.01704 20.171664,282.01704 C 21.053477,282.01704 23.277903,287.04803 25.114841,293.19703 C 26.951762,299.34601 29.98924,305.89373 31.864812,307.74752 C 36.423295,312.25307 36.217017,317.27918 31.550201,315.41265 C 29.501607,314.59328 26.382336,313.34092 24.618459,312.62953 C 22.457952,311.75821 21.445097,313.48201 21.514528,317.91214 C 21.659463,327.15674 16.849536,327.72349 10.699212,319.18649 z M 178.1701,302.45531 C 177.23561,298.77523 173.75467,293.27608 170.4347,290.23499 C 167.11474,287.1939 164.39841,283.58321 164.39841,282.21125 C 164.39841,280.83929 162.72228,280.35251 160.67369,281.1295 C 158.62509,281.9065 156.94897,284.6329 156.94897,287.18823 C 156.94897,292.06403 150.89152,293.59161 148.25797,289.37993 C 147.4139,288.03007 145.11312,286.92565 143.14513,286.92565 C 141.17713,286.92565 137.52957,284.91192 135.03944,282.45071 C 130.98777,278.44612 130.89277,277.40888 134.13543,272.58189 C 137.34602,267.80266 137.29603,266.68236 133.69666,262.75134 C 131.4624,260.31118 129.63439,256.35972 129.63439,253.97028 C 129.63439,248.65925 136.57594,233.26283 141.6097,227.4089 C 143.64098,225.04664 144.18996,223.11388 142.82962,223.11388 C 139.45259,223.11388 127.15124,245.88731 127.15124,252.13917 C 127.15124,257.71917 122.37263,262.1206 121.86806,257.00533 C 120.79224,246.0989 120.2632,243.17733 118.99761,241.15336 C 118.21958,239.90906 119.64537,234.51282 122.16611,229.16172 C 124.68682,223.81062 126.83968,220.87817 126.95023,222.64517 C 127.06078,224.41214 128.3141,225.14751 129.7354,224.27933 C 131.15668,223.41112 131.74089,220.86098 131.03366,218.6123 C 130.32642,216.36365 130.91286,212.86719 132.3369,210.84239 C 134.3245,208.01622 134.53795,208.51527 133.25573,212.99047 C 132.11967,216.95558 132.46473,218.28289 134.33466,217.14064 C 135.84669,216.21701 137.08382,213.86982 137.08382,211.92469 C 137.08382,209.97956 138.29237,208.3881 139.76949,208.3881 C 142.14821,208.3881 134.73976,222.97561 129.23699,229.12692 C 128.08982,230.40928 127.15124,233.1192 127.15124,235.14893 C 127.15124,237.17867 131.03359,232.81616 135.77868,225.45445 C 140.62051,217.94268 144.43403,213.95415 144.46968,216.36457 C 144.50465,218.72683 145.6156,220.65958 146.93848,220.65958 C 148.26132,220.65958 148.63015,222.4974 147.75806,224.74364 C 146.59933,227.72819 147.06817,228.28055 149.49954,226.79533 C 151.86024,225.35328 152.41018,225.83566 151.39284,228.45601 C 148.39129,236.18707 152.98279,238.14084 164.57397,234.06479 C 180.50694,228.46197 204.80467,230.39739 212.89997,237.91419 C 216.27015,241.04354 219.02757,244.79844 219.02757,246.25841 C 219.02757,247.7184 222.10047,250.30209 225.85622,251.99994 C 229.61198,253.69783 237.52959,259.4896 243.45091,264.87057 C 249.37224,270.25154 255.69805,274.65415 257.50826,274.65415 C 261.23539,274.65415 272.95831,261.67443 276.84388,253.24555 C 280.52865,245.25237 284.03929,246.31125 280.69189,254.40619 C 276.79279,263.83535 259.23102,279.56274 252.6012,279.56274 C 249.56633,279.56274 243.59667,280.76405 239.3353,282.23231 C 233.18003,284.35312 229.96282,284.10087 223.68439,281.00516 C 214.02722,276.2435 214.06129,276.24426 214.06129,280.78989 C 214.06129,282.81469 216.40786,286.79065 219.27589,289.62537 C 222.22016,292.53542 223.55291,295.70609 222.33699,296.90788 C 218.60179,300.59969 209.57745,296.52254 208.03443,290.44604 C 207.21975,287.23788 204.22503,283.38148 201.37947,281.87629 C 197.12776,279.62727 195.34565,280.05204 191.37948,284.25975 C 188.72505,287.07585 185.47936,289.37993 184.16682,289.37993 C 182.8543,289.37993 181.78041,290.48437 181.78041,291.83424 C 181.78041,293.1841 185.59998,294.28854 190.26832,294.28854 C 200.63866,294.28854 207.05291,296.50621 205.20947,299.45429 C 204.45385,300.66272 205.01896,301.65144 206.4653,301.65144 C 207.91163,301.65144 209.095,303.14276 209.095,304.96552 C 209.095,307.32356 204.87949,308.4046 194.48209,308.71296 C 180.4939,309.12783 179.79656,308.8603 178.1701,302.45531 z M 202.55805,262.35186 C 187.39475,247.28593 175.63141,244.91905 154.27058,252.63599 C 146.90503,255.29692 140.58351,257.47406 140.22282,257.47406 C 139.86209,257.47406 139.56696,259.68294 139.56696,262.38266 C 139.56696,265.10965 141.22241,267.29125 143.29168,267.29125 C 145.34027,267.29125 147.0164,268.39569 147.0164,269.74555 C 147.0164,273.86084 152.18911,272.48884 156.55095,267.21662 C 158.81846,264.47583 165.14335,261.53121 170.60626,260.67299 C 179.66786,259.24945 180.23999,259.47122 177.13088,263.20195 C 174.09059,266.85004 174.49246,267.29528 180.85559,267.32851 C 184.77856,267.349 193.01664,268.93177 199.16242,270.84576 C 215.83495,276.03817 215.97649,275.68412 202.55805,262.35186 z M 169.3647,269.74555 C 171.41329,268.43702 171.972,267.36643 170.60626,267.36643 C 169.24054,267.36643 166.447,268.43702 164.39841,269.74555 C 162.34982,271.05408 161.7911,272.12467 163.15684,272.12467 C 164.52256,272.12467 167.3161,271.05408 169.3647,269.74555 z M 146.96117,229.8632 C 147.08171,225.84547 144.46492,228.41922 140.72285,235.99895 L 136.78488,243.97542 L 141.84542,237.83968 C 144.62873,234.46501 146.9308,230.8756 146.96117,229.8632 z M 233.30565,294.88397 C 230.91562,294.35853 228.96015,292.90517 228.96015,291.65429 C 228.96015,288.51917 235.74383,288.78395 237.75326,291.99752 C 239.84742,295.34661 238.7246,296.07532 233.30565,294.88397 z M 278.00225,285.52245 C 276.97795,284.49439 276.13989,280.85534 276.13989,277.43567 C 276.13989,272.96712 276.89752,271.96696 278.83326,273.88022 C 280.31463,275.34438 281.15269,278.98342 280.69562,281.96698 C 280.23857,284.95054 279.02655,286.55049 278.00225,285.52245 z M 299.70297,245.67902 C 294.22533,243.39217 278.58151,234.26292 264.93895,225.39181 C 229.70328,202.47971 222.56076,198.43405 214.93163,197.06668 C 201.60293,194.67783 180.4098,194.55373 173.58343,196.82461 C 164.19501,199.94781 161.85435,196.98928 170.88267,193.41091 C 186.35471,187.27857 216.83414,190.74368 235.16801,200.71929 C 250.78312,209.21561 262.05726,216.43773 267.44888,221.39815 C 275.07961,228.41863 301.0542,243.00479 312.14549,246.49777 C 319.83347,248.91896 320.67521,249.64971 315.8702,249.73139 C 312.45588,249.78943 305.18064,247.96587 299.70297,245.67902 z M 312.14549,235.5009 C 300.34131,232.59114 275.10467,220.25131 271.1736,215.4671 C 270.49074,214.63604 265.46237,211.58727 259.99946,208.69208 C 247.44602,202.03909 241.24268,198.15792 236.95787,194.27588 C 235.09548,192.58855 231.48263,191.20801 228.92934,191.20801 C 226.37602,191.20801 223.64468,190.18086 222.85968,188.92548 C 222.07472,187.67008 215.02492,185.94461 207.19351,185.09111 C 199.36209,184.23757 189.60231,182.83191 185.50513,181.96733 C 178.75465,180.54288 179.22061,180.24843 190.47142,178.82902 C 208.81654,176.51457 224.23808,182.24795 263.72417,206.06277 C 272.60141,211.41679 283.77556,217.71968 288.55561,220.0692 C 293.33567,222.4187 297.80532,225.05954 298.48818,225.93773 C 299.17106,226.8159 306.1549,229.37924 314.00785,231.63405 C 333.44407,237.21473 331.92165,240.3758 312.14549,235.5009 z M 138.48504,197.85147 C 139.41753,195.431 140.806,194.06885 141.57054,194.82452 C 142.33507,195.58014 141.57213,197.56054 139.8751,199.22539 C 137.4227,201.63124 137.13748,201.34934 138.48504,197.85147 z M 178.26168,164.54012 C 177.19201,162.82946 176.98742,160.76705 177.80704,159.95693 C 180.02937,157.76043 182.45243,160.99093 181.25213,164.55 C 180.41103,167.04402 179.82613,167.04208 178.26168,164.54012 z M 191.71299,156.84783 C 191.71299,155.49797 192.8304,154.39353 194.19614,154.39353 C 195.56187,154.39353 196.67928,155.49797 196.67928,156.84783 C 196.67928,158.19769 195.56187,159.30213 194.19614,159.30213 C 192.8304,159.30213 191.71299,158.19769 191.71299,156.84783 z M 189.22985,140.75004 C 189.22985,138.64557 190.34726,137.60633 191.71299,138.44059 C 193.07872,139.27486 194.19614,140.99668 194.19614,142.26689 C 194.19614,143.53708 193.07872,144.57634 191.71299,144.57634 C 190.34726,144.57634 189.22985,142.85449 189.22985,140.75004 z M -62.338519,520.76257 C -65.83658,509.05301 -70.580279,503.02852 -68.025341,513.5403 C -66.916599,518.10205 -67.22364,519.9524 -68.917609,518.91762 C -70.338077,518.04992 -71.500283,519.19704 -71.500283,521.4668 C -71.500283,524.70429 -70.759239,524.98572 -68.061499,522.77284 C -65.312387,520.51777 -64.292163,521.25392 -62.974383,526.44336 C -62.067761,530.01358 -60.870242,532.4842 -60.313194,531.93363 C -59.756155,531.38306 -60.667535,526.35609 -62.338519,520.76257 z M -11.653579,523.24433 C -14.038865,519.19323 -14.242726,519.24887 -14.312458,523.96995 C -14.396359,529.6513 -11.245221,534.08113 -9.9184663,530.14704 C -9.4518943,528.76365 -10.232693,525.65744 -11.653579,523.24433 z M -0.27599505,524.53239 C -1.0686623,522.57453 -1.6570589,523.15608 -1.776207,526.01521 C -1.8840215,528.60243 -1.2971388,530.05201 -0.47201016,529.23647 C 0.35311015,528.42091 0.44134413,526.3041 -0.27599505,524.53239 z M -92.991702,523.65958 C -93.800429,521.57655 -94.99467,520.39865 -95.645555,521.04199 C -96.296466,521.68533 -96.092471,523.38962 -95.192266,524.82929 C -92.743754,528.74503 -91.312639,527.98431 -92.991702,523.65958 z M -37.729527,521.0657 C -38.613255,518.78948 -39.895027,517.47932 -40.577889,518.15427 C -41.260751,518.82919 -41.096395,521.24378 -40.212666,523.52 C -39.328946,525.79621 -38.047166,527.10636 -37.364304,526.43143 C -36.681442,525.7565 -36.84579,523.34191 -37.729527,521.0657 z M -124.43319,519.62379 C -125.22587,517.66593 -125.81427,518.24747 -125.93342,521.1066 C -126.04122,523.69384 -125.45433,525.14341 -124.62922,524.32788 C -123.80408,523.51232 -123.71587,521.39551 -124.43319,519.62379 z M -74.10247,510.07641 C -72.753458,512.23381 -71.789893,511.62641 -70.834802,508.01656 C -70.089802,505.20087 -70.493484,503.51604 -71.731854,504.2725 C -72.970225,505.02896 -74.071648,504.20216 -74.179471,502.43516 C -74.331415,499.94501 -74.658347,499.91588 -75.633128,502.3056 C -77.490893,506.86009 -81.426995,503.44251 -81.470873,497.23686 C -81.491776,494.27934 -82.677017,490.20289 -84.104694,488.1781 C -87.240484,483.7308 -85.122392,496.99938 -80.608256,510.08119 C -78.030066,517.55269 -77.614206,517.84907 -76.861913,512.75119 C -76.291683,508.88712 -75.391637,508.01469 -74.10247,510.07641 z M 22.859191,512.72108 C 22.859191,511.37122 21.741784,510.26678 20.376052,510.26678 C 19.010328,510.26678 17.892903,511.37122 17.892903,512.72108 C 17.892903,514.07095 19.010328,515.17537 20.376052,515.17537 C 21.741784,515.17537 22.859191,514.07095 22.859191,512.72108 z M -119.22905,495.60743 C -121.4754,486.86031 -122.36894,485.70025 -123.894,489.55088 C -124.93152,492.17051 -125.7804,497.07494 -125.7804,500.44959 C -125.7804,505.80534 -125.53996,505.97804 -123.88897,501.80816 C -122.12959,497.36454 -121.88859,497.44273 -120.43727,502.92814 C -119.57912,506.17157 -118.33104,508.28565 -117.66374,507.6261 C -116.99645,506.96657 -117.70081,501.55815 -119.22905,495.60743 z M -112.87362,494.79855 C -113.69307,489.80744 -115.21594,485.7238 -116.25774,485.7238 C -117.29958,485.7238 -117.00725,490.1812 -115.60818,495.62913 C -112.50189,507.7247 -110.83447,507.21826 -112.87362,494.79855 z M -3.9974467,486.71698 C -4.4284206,485.49579 -6.3839045,484.82118 -8.3429515,485.21782 C -10.332812,485.62069 -11.904822,484.0862 -11.904822,481.74089 C -11.904822,479.43193 -12.565569,478.19585 -13.373125,478.99404 C -16.291972,481.87899 -11.658497,490.16233 -7.4660568,489.55415 C -5.1273335,489.21489 -3.566456,487.93817 -3.9974467,486.71698 z M -34.019986,470.16569 C -36.681442,465.1451 -36.781754,465.21826 -35.900961,471.53732 C -35.389239,475.20858 -35.926539,477.6284 -37.094985,476.91464 C -38.263431,476.2009 -39.219409,473.47322 -39.219409,470.85316 C -39.219409,468.2331 -40.301762,466.08942 -41.624602,466.08942 C -44.042518,466.08942 -43.54187,468.62166 -38.508343,481.85126 L -35.779655,489.02304 L -33.494095,482.24608 C -31.975975,477.74461 -32.152552,473.68836 -34.019986,470.16569 z M 104.34635,479.57767 C 102.78805,476.19732 101.18021,473.76057 100.77335,474.16268 C 99.262509,475.65601 102.97744,485.7238 105.03932,485.7238 C 106.21647,485.7238 105.90464,482.95805 104.34635,479.57767 z M -113.9025,474.56415 C -112.83587,475.2157 -113.14661,471.36658 -114.59302,466.01051 C -116.03944,460.65445 -118.05131,456.27222 -119.06384,456.27222 C -120.0764,456.27222 -119.69439,459.70412 -118.21498,463.89869 C -116.21879,469.55847 -116.27378,471.98243 -118.42826,473.29852 C -120.20341,474.38288 -120.5838,476.90283 -119.40734,479.78428 C -117.62039,484.16088 -117.42482,484.10058 -116.66257,478.93809 C -116.21116,475.88086 -114.96911,473.91259 -113.9025,474.56415 z M -100.05644,475.90661 C -99.21237,474.55674 -99.705122,473.45231 -101.15145,473.45231 C -102.59779,473.45231 -103.78116,474.55674 -103.78116,475.90661 C -103.78116,477.25647 -103.2884,478.36091 -102.68614,478.36091 C -102.08388,478.36091 -100.90052,477.25647 -100.05644,475.90661 z M -14.387962,471.92466 C -14.387962,468.66339 -15.062108,468.49569 -18.112684,470.99801 C -20.161278,472.67844 -21.837406,474.47033 -21.837406,474.97996 C -21.837406,475.48963 -20.161278,475.90661 -18.112684,475.90661 C -16.06409,475.90661 -14.387962,474.11473 -14.387962,471.92466 z M -118.768,469.15729 C -118.81642,468.14489 -120.56972,464.55548 -122.66423,461.18081 C -124.75876,457.80616 -125.83659,457.06814 -125.0594,459.54083 C -124.2822,462.01349 -123.64631,465.6029 -123.64631,467.5173 C -123.64631,469.43168 -122.52889,470.99801 -121.16317,470.99801 C -119.79744,470.99801 -118.71963,470.16969 -118.768,469.15729 z M -71.500283,464.3714 C -71.500283,459.81343 -72.300871,458.53608 -74.064823,460.27955 C -75.47532,461.67367 -75.914491,464.65564 -75.040725,466.90615 C -72.740611,472.83056 -71.500283,471.94254 -71.500283,464.3714 z M -41.339994,455.96674 C -46.505274,454.02985 -47.156327,454.61516 -45.262487,459.49304 C -44.06214,462.58482 -43.05177,462.78934 -40.495962,460.4579 C -37.847253,458.04174 -38.001966,457.21841 -41.339994,455.96674 z M -6.9385348,452.59077 C -6.9385348,450.56598 -8.0559506,448.90933 -9.4216828,448.90933 C -10.787407,448.90933 -11.904822,450.56598 -11.904822,452.59077 C -11.904822,454.61557 -10.787407,456.27222 -9.4216828,456.27222 C -8.0559506,456.27222 -6.9385348,454.61557 -6.9385348,452.59077 z M -123.64631,451.36363 C -123.64631,450.01376 -124.82968,448.90933 -126.27601,448.90933 C -127.72234,448.90933 -128.2151,450.01376 -127.37103,451.36363 C -126.52696,452.7135 -125.34359,453.81792 -124.74133,453.81792 C -124.13906,453.81792 -123.64631,452.7135 -123.64631,451.36363 z M -91.101434,438.97717 C -93.383214,433.32907 -93.543531,433.50078 -93.691176,441.75095 C -93.777762,446.58798 -93.010513,451.38668 -91.986225,452.41473 C -89.051577,455.36016 -88.411289,445.6361 -91.101434,438.97717 z M -11.942838,443.38716 C -11.921927,442.37475 -13.022238,441.54643 -14.387962,441.54643 C -15.753702,441.54643 -16.854005,444.0314 -16.833095,447.0686 C -16.802331,451.53406 -16.334437,451.88628 -14.387962,448.90933 C -13.064059,446.88453 -11.963757,444.39956 -11.942838,443.38716 z M -96.331721,445.30489 C -96.331721,443.0245 -97.77642,442.24843 -100.26465,443.19217 C -103.43121,444.39317 -103.55216,445.08818 -100.88544,446.75899 C -96.47505,449.52224 -96.331721,449.47646 -96.331721,445.30489 z M -86.78354,434.55099 C -88.406973,427.59956 -90.75386,421.91204 -91.998838,421.91204 C -93.243808,421.91204 -93.67397,423.29258 -92.954724,424.97992 C -92.235486,426.66725 -90.322819,432.78395 -88.704345,438.57258 C -84.639092,453.11239 -83.168012,450.03238 -86.78354,434.55099 z M -66.612962,433.10086 C -66.656389,431.67154 -68.332516,432.64594 -70.337675,435.2662 C -72.697426,438.34984 -73.983431,438.85485 -73.983431,436.69786 C -73.983431,434.86506 -74.568432,433.94365 -75.283454,434.65037 C -75.998451,435.35706 -75.818746,437.90496 -74.884088,440.31234 C -73.262696,444.48852 -73.032111,444.48312 -69.859352,440.19453 C -68.03041,437.72234 -66.569526,434.5302 -66.612962,433.10086 z M 36.474818,417.34658 C 31.563659,398.20304 29.720573,387.85301 28.000475,369.75821 C 27.904219,368.74581 23.390887,367.91748 17.97085,367.91748 C 10.231343,367.91748 8.4229606,368.70764 9.5454953,371.59893 C 10.33163,373.62373 10.017195,375.29729 8.8467832,375.31796 C 7.6763802,375.33862 5.0480714,376.39946 3.0061351,377.67536 C -0.18893206,379.67176 -0.040216521,380.47667 4.0727886,383.44923 C 8.6137147,386.73108 8.3964126,387.11704 -0.28480256,391.18869 C -5.3100913,393.54563 -9.4216828,395.88183 -9.4216828,396.38023 C -9.4216828,396.87859 -4.0598604,399.97184 2.4935098,403.2541 C 14.979484,409.50772 36.760029,429.76626 39.243896,437.43637 C 40.041811,439.90036 41.068582,441.54675 41.525634,441.09502 C 41.982686,440.6433 39.709813,429.9565 36.474818,417.34658 z M 5.4771801,380.18898 C 5.4771801,378.83911 6.5946043,377.73468 7.9603282,377.73468 C 9.3260604,377.73468 10.443476,378.83911 10.443476,380.18898 C 10.443476,381.53884 9.3260604,382.64327 7.9603282,382.64327 C 6.5946043,382.64327 5.4771801,381.53884 5.4771801,380.18898 z M 266.79311,424.97992 C 267.79283,413.95441 267.34122,412.09486 263.66371,412.09486 C 261.29995,412.09486 257.97492,410.4382 256.27474,408.4134 C 251.28985,402.47675 249.41187,404.0707 248.32264,415.16272 C 247.43226,424.22998 248.29081,426.56109 254.89049,432.99573 C 259.06614,437.06694 263.1896,439.82803 264.0537,439.13148 C 264.91779,438.4349 266.15055,432.06671 266.79311,424.97992 z M -83.666268,424.21329 C -85.960795,418.53626 -86.092405,418.50248 -86.241748,423.55204 C -86.328334,426.47883 -85.594091,430.89657 -84.610135,433.36922 C -83.138378,437.06778 -82.681684,437.18504 -82.034671,434.03049 C -81.602083,431.9215 -82.336301,427.50378 -83.666268,424.21329 z M -106.2643,430.35724 C -106.2643,428.25277 -107.39994,427.22468 -108.78794,428.07253 C -110.17594,428.92039 -110.66873,430.64223 -109.88296,431.89884 C -107.75431,435.30304 -106.2643,434.66829 -106.2643,430.35724 z M -114.50062,426.36047 C -115.29329,424.4026 -115.88169,424.98414 -116.00083,427.84327 C -116.10866,430.43049 -115.52176,431.88007 -114.69664,431.06454 C -113.87152,430.24897 -113.78329,428.13216 -114.50062,426.36047 z M -98.776854,428.66136 C -98.751494,426.61612 -97.936452,426.82065 -96.331721,429.27494 C -94.664844,431.8243 -93.912944,431.99427 -93.886597,429.82778 C -93.865686,428.10704 -96.714843,425.62206 -100.2181,424.30559 C -108.9017,421.04243 -109.24055,421.19823 -105.68804,426.82065 C -102.18628,432.36271 -98.833789,433.25562 -98.776854,428.66136 z M 277.86069,412.75513 C 277.23111,410.36718 276.67458,411.72671 276.62398,415.7763 C 276.57338,419.82589 277.08848,421.77966 277.76868,420.11802 C 278.44887,418.45639 278.49026,415.14309 277.86069,412.75513 z M 50.173776,394.91476 C 50.173776,393.5649 48.990418,392.46046 47.544079,392.46046 C 46.097751,392.46046 45.604997,393.5649 46.449068,394.91476 C 47.293139,396.26463 48.476497,397.36906 49.078765,397.36906 C 49.681022,397.36906 50.173776,396.26463 50.173776,394.91476 z M 36.995707,385.75786 C 36.366134,383.36989 35.809613,384.72942 35.759001,388.77903 C 35.708398,392.82861 36.223499,394.78238 36.903709,393.12075 C 37.583896,391.45911 37.625289,388.14581 36.995707,385.75786 z M 304.67847,321.31392 C 305.54841,319.92268 304.55168,319.51123 302.34188,320.34936 C 298.04003,321.98095 297.25295,323.74011 300.82478,323.74011 C 302.1099,323.74011 303.84409,322.64831 304.67847,321.31392 z M 348.77185,314.65128 C 347.06469,314.02571 345.66793,310.97185 345.66793,307.86493 C 345.66793,304.49837 343.07489,300.53666 339.25009,298.05968 C 333.26865,294.18601 332.52256,294.1804 328.27797,297.97709 C 323.86466,301.92468 323.87117,302.19656 328.48795,306.7597 C 331.10829,309.3496 333.25222,313.16086 333.25222,315.22915 C 333.25222,321.03686 343.64899,324.03159 348.15108,319.52068 C 350.98036,316.68587 351.12961,315.51524 348.77185,314.65128 z M 322.32913,307.66512 C 319.74004,305.79394 316.51795,304.9372 315.16892,305.76127 C 313.81987,306.58534 315.37959,308.66845 318.63491,310.39043 C 325.99249,314.28233 328.71056,312.27714 322.32913,307.66512 z M 74.332716,287.89712 C 73.507588,287.08158 71.365883,286.99441 69.573342,287.70338 C 67.592465,288.48685 68.180845,289.06841 71.073588,289.18616 C 73.691215,289.29274 75.157837,288.71269 74.332716,287.89712 z M 5.6197229,255.63334 C 7.5022626,251.92121 9.4508878,248.05569 9.9499463,247.0433 C 10.449005,246.03089 8.6516296,245.20257 5.9557882,245.20257 C 2.2027116,245.20257 0.81649539,247.21529 0.039628166,253.79261 C -1.1792538,264.11191 0.96173978,264.81815 5.6197229,255.63334 z M 7.9603282,239.06683 C 9.6847007,237.01321 9.9536015,235.38537 8.5684225,235.38537 C 7.2026986,235.38537 4.6942238,237.04203 2.9940405,239.06683 C 1.2696679,241.12044 1.0007672,242.74827 2.3859378,242.74827 C 3.7516784,242.74827 6.2601449,241.09161 7.9603282,239.06683 z M 381.67353,225.56818 C 382.51758,224.21831 382.02483,223.11388 380.5785,223.11388 C 379.13218,223.11388 377.9488,224.21831 377.9488,225.56818 C 377.9488,226.91804 378.44156,228.02248 379.04382,228.02248 C 379.64609,228.02248 380.82945,226.91804 381.67353,225.56818 z M 76.246797,210.84239 C 77.136832,209.41902 74.71849,208.3881 70.489532,208.3881 C 63.107411,208.3881 56.217803,203.23238 59.398689,200.08846 C 60.351496,199.14672 58.571204,197.71457 55.442511,196.9059 C 46.088733,194.48825 54.737868,191.31489 67.500149,192.48199 C 78.576755,193.49489 77.853803,193.13325 59.485567,188.47282 C 52.702663,186.75184 50.173776,184.80282 50.173776,181.2962 C 50.173776,178.57229 51.854574,176.48222 54.04505,176.48222 C 56.17425,176.48222 57.225708,175.37778 56.381637,174.02791 C 55.537566,172.67805 56.654985,171.57361 58.864779,171.57361 C 61.074584,171.57361 62.192,170.46919 61.347934,169.11932 C 58.944498,165.27564 75.740855,166.19379 86.101452,170.47244 C 96.388193,174.72062 95.827323,170.9519 85.401125,165.76665 C 74.357274,160.27423 60.842133,159.35071 47.748819,163.19386 C 33.974239,167.23695 29.294877,171.23075 40.182924,169.65129 L 47.311811,168.61714 L 46.597901,183.75054 C 46.205267,192.0739 44.614392,200.13883 43.062621,201.67257 C 39.130289,205.55922 39.5353,209.18098 43.724554,207.59209 C 45.640407,206.86545 49.272005,207.81661 51.79478,209.70575 C 57.099024,213.67777 73.983084,214.46261 76.246797,210.84239 z M 359.82826,180.06357 C 368.47395,174.4645 365.92649,173.62252 353.32429,177.91388 C 342.31489,181.66287 336.69214,180.67787 343.2567,176.15024 C 346.00007,174.25813 345.24729,173.98808 340.23305,175.06557 C 332.43421,176.74141 329.7958,173.70103 329.38568,162.56573 C 329.17826,156.93346 330.52959,154.09911 334.27962,152.30107 C 337.12886,150.9349 338.06331,149.7424 336.35615,149.65104 C 331.70369,149.40205 332.61878,145.09987 337.59771,143.81383 C 341.04926,142.92233 340.85637,142.63288 336.66018,142.40673 C 328.46957,141.96535 325.02399,136.07482 326.81901,125.58242 C 328.25586,117.18364 328.07235,116.76107 324.78253,120.89271 C 322.79396,123.39013 320.09194,124.77682 318.77806,123.97425 C 317.46418,123.17164 315.84201,126.65046 315.17326,131.70494 C 314.5045,136.75943 313.24001,143.97816 312.36329,147.74658 C 307.41735,169.00559 341.29084,192.06867 359.82826,180.06357 z M 386.62143,145.27262 C 386.60544,132.08943 385.71496,129.21873 379.72473,123.03888 C 375.94163,119.13606 371.48023,115.89926 369.81053,115.84598 C 368.14079,115.79269 365.14931,115.33251 363.16279,114.82335 C 357.16904,113.2871 358.55026,120.78898 365.70364,128.6234 C 374.88669,138.68068 381.11884,151.53234 379.59881,157.27743 C 378.67539,160.76747 379.44862,161.82394 382.48896,161.22627 C 385.83262,160.56899 386.63623,157.46656 386.62143,145.27262 z M 67.555796,117.57905 C 72.144942,113.52947 76.815856,110.21616 77.935605,110.21616 C 79.055346,110.21616 79.971503,109.11172 79.971503,107.76186 C 79.971503,104.51483 63.333755,104.58604 61.297942,107.84181 C 58.332997,112.58348 55.479261,124.94195 57.349326,124.94195 C 58.373742,124.94195 62.966634,121.62865 67.555796,117.57905 z M 266.20731,96.862367 C 266.20731,96.267099 265.0899,95.09748 263.72417,94.263221 C 262.35844,93.428953 261.24102,93.915997 261.24102,95.345515 C 261.24102,96.775054 262.35844,97.944664 263.72417,97.944664 C 265.0899,97.944664 266.20731,97.457635 266.20731,96.862367 z M 296.67309,76.700417 C 294.99192,76.028134 291.63968,75.987208 289.22365,76.609475 C 286.80762,77.231741 288.18314,77.7818 292.28032,77.831817 C 296.37752,77.881834 298.35425,77.3727 296.67309,76.700417 z M 138.89446,62.101674 C 138.0693,61.286128 135.9276,61.19893 134.13509,61.907931 C 132.1542,62.691393 132.74259,63.27296 135.63533,63.390714 C 138.25295,63.497284 139.71958,62.917232 138.89446,62.101674 z"
       id="path8068"
       style="fill:#000000" />
  </g>
</svg>
